<svg width="92" height="24" viewBox="0 0 92 24" fill="none" xmlns="http://www.w3.org/2000/svg">
<path d="M0.40625 23V19.0156H3.51562V4.48438H0.40625V0.5H11.4531V4.48438H8.34375V19.0156H11.4531V23H0.40625ZM14.2188 23V6.125H18.7188V10.0156L18.6094 9.3125C19.1198 8.19792 19.8438 7.32292 20.7812 6.6875C21.7188 6.04167 22.849 5.71875 24.1719 5.71875C25.4844 5.71875 26.5573 6.01562 27.3906 6.60938C28.2344 7.20312 28.8594 8.02604 29.2656 9.07812C29.6719 10.1302 29.875 11.3438 29.875 12.7188V23H25.2188V13.0156C25.2188 11.8177 25.0208 10.8906 24.625 10.2344C24.2292 9.56771 23.5417 9.23438 22.5625 9.23438C21.4062 9.23438 20.5 9.72917 19.8438 10.7188C19.1979 11.7083 18.875 13.224 18.875 15.2656V23H14.2188ZM38.0156 23C36.7656 23 35.8021 22.6979 35.125 22.0938C34.4583 21.4792 34.125 20.599 34.125 19.4531V9.53125H31.7188V6.125H34.125V2.8125L38.7812 1.6875V6.125H41.9062V9.53125H38.7812V18.7188C38.7812 19.0625 38.8281 19.2969 38.9219 19.4219C39.026 19.5365 39.2396 19.5938 39.5625 19.5938H42.1406V23H38.0156ZM44.875 23V6.125H49.375V9.92188L49.1875 9.42188C49.7188 8.17188 50.4688 7.24479 51.4375 6.64062C52.4062 6.02604 53.4635 5.71875 54.6094 5.71875C54.9323 5.71875 55.2604 5.74479 55.5938 5.79688C55.9271 5.84896 56.2604 5.9375 56.5938 6.0625L56.2344 10.0312C55.5573 9.84375 54.9062 9.75 54.2812 9.75C53.7708 9.75 53.2344 9.83854 52.6719 10.0156C52.1198 10.1927 51.6042 10.5052 51.125 10.9531C50.6562 11.3906 50.2708 12.0156 49.9688 12.8281C49.6771 13.6302 49.5312 14.6562 49.5312 15.9062V23H44.875ZM58.4062 23V6.125H62.9062V10.0156L62.7969 9.3125C63.3073 8.19792 64.0312 7.32292 64.9688 6.6875C65.9062 6.04167 67.0365 5.71875 68.3594 5.71875C69.6719 5.71875 70.7448 6.01562 71.5781 6.60938C72.4219 7.20312 73.0469 8.02604 73.4531 9.07812C73.8594 10.1302 74.0625 11.3438 74.0625 12.7188V23H69.4062V13.0156C69.4062 11.8177 69.2083 10.8906 68.8125 10.2344C68.4167 9.56771 67.7292 9.23438 66.75 9.23438C65.5938 9.23438 64.6875 9.72917 64.0312 10.7188C63.3854 11.7083 63.0625 13.224 63.0625 15.2656V23H58.4062ZM84.2656 23.4062C82.9948 23.4062 81.7969 23.224 80.6719 22.8594C79.5469 22.4844 78.599 21.9062 77.8281 21.125C77.0573 20.3438 76.5677 19.3281 76.3594 18.0781L80.6094 17.2344C80.7031 18.1823 81.0365 18.901 81.6094 19.3906C82.1927 19.8698 83.0208 20.1094 84.0938 20.1094C85.125 20.1094 85.8906 19.9062 86.3906 19.5C86.8906 19.0833 87.1406 18.599 87.1406 18.0469C87.1406 17.5573 86.9427 17.1354 86.5469 16.7812C86.1615 16.4271 85.4896 16.1771 84.5312 16.0312L83 15.7812C82.3958 15.6875 81.75 15.5625 81.0625 15.4062C80.3854 15.2396 79.7448 14.9948 79.1406 14.6719C78.5365 14.3385 78.0417 13.8802 77.6562 13.2969C77.2708 12.7135 77.0781 11.9635 77.0781 11.0469C77.0781 9.93229 77.375 8.97917 77.9688 8.1875C78.5729 7.38542 79.4062 6.77604 80.4688 6.35938C81.5312 5.93229 82.7448 5.71875 84.1094 5.71875C85.3698 5.71875 86.5208 5.90625 87.5625 6.28125C88.6042 6.64583 89.474 7.1875 90.1719 7.90625C90.8802 8.61458 91.3385 9.49479 91.5469 10.5469L87.2969 11.4219C87.224 10.9948 87.0833 10.5938 86.875 10.2188C86.6771 9.84375 86.3698 9.54167 85.9531 9.3125C85.5365 9.07292 84.974 8.95312 84.2656 8.95312C83.4635 8.95312 82.8229 9.10938 82.3438 9.42188C81.875 9.73438 81.6406 10.1615 81.6406 10.7031C81.6406 11.099 81.7708 11.4219 82.0312 11.6719C82.3021 11.9219 82.6667 12.125 83.125 12.2812C83.5938 12.4271 84.1198 12.5521 84.7031 12.6562L86.4531 12.9531C87.349 13.099 88.1979 13.3542 89 13.7188C89.8125 14.0729 90.474 14.5833 90.9844 15.25C91.4948 15.9167 91.75 16.7917 91.75 17.875C91.75 19.0729 91.4219 20.0833 90.7656 20.9062C90.1198 21.7292 89.2292 22.3542 88.0938 22.7812C86.9688 23.1979 85.6927 23.4062 84.2656 23.4062Z" fill="#1E2763"/>
</svg>
