<svg width="1336" height="258" viewBox="0 0 1336 258" fill="none" xmlns="http://www.w3.org/2000/svg">
<g opacity="0.6">
<path fill-rule="evenodd" clip-rule="evenodd" d="M802.878 -577.3C907.604 -562.364 1021.41 -559.543 1086.58 -497.213C1163.35 -423.797 1212 -323.52 1175.51 -220.924C1137.83 -115.013 1019.96 -35.5992 900.265 26.5318C778.022 89.9859 643.712 132.531 510.075 124.491C359.875 115.454 192.383 86.504 135.674 -19.4707C80.428 -122.714 177.99 -249.676 249.727 -362.041C306.715 -451.303 381.772 -537.743 494.581 -581.643C597.102 -621.54 700.072 -591.962 802.878 -577.3Z" stroke="white"/>
<path fill-rule="evenodd" clip-rule="evenodd" d="M881.653 -619.647C1017.14 -598.575 1082.74 -489.298 1130.05 -388.146C1171.25 -300.058 1167.28 -200.531 1123.26 -103.036C1080.57 -8.48214 1009.17 87.9568 894.713 133.122C787.814 175.305 687.582 116.911 576.584 112.681C429.597 107.078 241.812 187.54 150.497 104.758C57.0283 20.0226 114.594 -129.749 179.735 -247.086C238.33 -352.63 357.85 -424.242 480.245 -489.206C607.698 -556.855 745.965 -640.75 881.653 -619.647Z" stroke="white"/>
<path fill-rule="evenodd" clip-rule="evenodd" d="M900.251 -595.648C1033.99 -599.753 1165.88 -539.089 1204.94 -442.191C1241.81 -350.695 1128.33 -253.652 1077.6 -155.671C1033.77 -71.0242 1022.71 23.6677 932.542 83.8811C829.987 152.363 692.551 203.59 578.144 177.843C467.463 152.933 457.682 39.7111 398.571 -36.2913C332.301 -121.498 163.43 -182.55 216.46 -287.192C270.121 -393.08 468.423 -366.465 594.779 -423.464C706.764 -473.981 779.561 -591.944 900.251 -595.648Z" stroke="white"/>
<path fill-rule="evenodd" clip-rule="evenodd" d="M841.379 -608.408C966.858 -595.748 1053.18 -512.232 1095.18 -419.959C1132.83 -337.251 1075.49 -243.984 1049.56 -151.032C1017.87 -37.4015 1052.94 102.982 929.435 174.312C805.2 246.063 660.817 172.108 524.798 152.044C387.337 131.767 206.17 154.991 144.819 58.5745C83.6483 -37.56 184.629 -164.168 254.672 -272.478C310.003 -358.038 394.376 -423.883 493.538 -480.66C603.104 -543.394 719.735 -620.681 841.379 -608.408Z" stroke="white"/>
<path fill-rule="evenodd" clip-rule="evenodd" d="M809.91 -566.079C903.299 -541.636 1017.23 -548.805 1074.66 -487.557C1138.47 -419.499 1138.44 -325.458 1121.72 -233.514C1099.89 -113.438 1091.77 23.8653 966.883 105.141C833.78 191.76 653.141 197.175 503.921 168.535C360.839 141.074 244.904 64.1852 192.318 -43.5222C144.14 -142.202 192.161 -257.897 242.054 -367.83C289.946 -473.352 336.203 -601.47 466.132 -646.83C591.567 -690.622 692.328 -596.855 809.91 -566.079Z" stroke="white"/>
<path fill-rule="evenodd" clip-rule="evenodd" d="M782.327 -514.028C913.506 -498.284 1105.88 -549.57 1155.38 -454.739C1205.41 -358.877 1028.33 -259.265 970.76 -153.015C923.743 -66.2389 954.902 48.795 854.053 101.397C752.993 154.109 646.154 86.1469 537.728 72.8513C421.887 58.6464 265.125 99.091 207.296 22.089C149.205 -55.2609 253.127 -161.046 290.098 -256.877C328.77 -357.117 311.666 -483.147 425.067 -542.39C538.775 -601.794 660.167 -528.689 782.327 -514.028Z" stroke="white"/>
<path fill-rule="evenodd" clip-rule="evenodd" d="M804.96 -552.019C899.92 -533.192 966.111 -481.423 1023.37 -421.446C1094.22 -347.235 1183.51 -274.47 1166.23 -173.602C1146.35 -57.5256 1066.11 72.5382 929.198 128.43C796.986 182.402 669.891 109.947 540.41 81.8716C426.088 57.0831 296.544 51.7952 230.334 -23.1052C157.958 -104.98 127.611 -219.091 181.951 -323.635C233.922 -423.621 368.106 -481.305 492.129 -526.77C595.687 -564.732 704.325 -571.971 804.96 -552.019Z" stroke="white"/>
<path fill-rule="evenodd" clip-rule="evenodd" d="M799.965 -565.451C910.767 -546.876 972.885 -468.491 1025.36 -391.597C1078.46 -313.805 1121.19 -228.946 1094.3 -134.184C1064.51 -29.2476 1000.14 89.0868 875.127 137.768C754.967 184.561 640.15 120.04 528.143 86.2879C441.119 60.0643 362.639 27.4211 310.57 -32.3544C251.098 -100.63 190.854 -178.274 219.97 -267.501C250.4 -360.751 353.447 -432.465 458.793 -486.583C565.573 -541.437 687.798 -584.256 799.965 -565.451Z" stroke="white"/>
</g>
</svg>
