<svg width="17" height="17" viewBox="0 0 17 17" fill="none" xmlns="http://www.w3.org/2000/svg">
<path d="M15.0332 2.21022C15.1047 2.28176 15.1528 2.37329 15.1712 2.47273C15.1896 2.57217 15.1774 2.67485 15.1362 2.76722L9.47922 15.4952C9.43969 15.5842 9.37503 15.6598 9.29317 15.7125C9.21131 15.7653 9.11582 15.793 9.01843 15.7923C8.92103 15.7916 8.82597 15.7624 8.74493 15.7084C8.66388 15.6543 8.60038 15.5778 8.56222 15.4882L6.52122 10.7222L1.75422 8.68022C1.66494 8.64182 1.58879 8.57824 1.53508 8.49724C1.48137 8.41625 1.45243 8.32136 1.45179 8.22418C1.45116 8.127 1.47885 8.03174 1.5315 7.95005C1.58415 7.86836 1.65946 7.80379 1.74822 7.76422L14.4762 2.10722C14.5685 2.06627 14.6709 2.05419 14.7702 2.07257C14.8694 2.09096 14.9618 2.13894 15.0332 2.21022Z" fill="#07CBC9"/>
</svg>
