<svg width="50" height="50" viewBox="0 0 50 50" fill="none" xmlns="http://www.w3.org/2000/svg">
<rect width="50" height="50" rx="8" fill="#23BDEE"/>
<g clip-path="url(#clip0_8_9846)">
<path d="M18.1247 11.25C17.5823 11.25 17.1426 11.6897 17.1426 12.2322V14.1964H19.1069V12.2322C19.1069 11.6897 18.6671 11.25 18.1247 11.25Z" fill="white"/>
<path d="M31.8747 11.25C31.3323 11.25 30.8926 11.6897 30.8926 12.2322V14.1964H32.8568V12.2322C32.8569 11.6897 32.4172 11.25 31.8747 11.25Z" fill="white"/>
<path d="M35.8036 14.1963H32.8571V18.1249C32.8571 18.6673 32.4174 19.107 31.875 19.107C31.3325 19.107 30.8928 18.6673 30.8928 18.1249V14.1963H19.1071V18.1249C19.1071 18.6673 18.6674 19.107 18.125 19.107C17.5825 19.107 17.1428 18.6673 17.1428 18.1249V14.1963H14.1964C12.5692 14.1963 11.25 15.5154 11.25 17.1427V35.8034C11.25 37.4307 12.5692 38.7499 14.1964 38.7499H35.8036C37.4308 38.7499 38.75 37.4307 38.75 35.8034V17.1427C38.75 15.5154 37.4308 14.1963 35.8036 14.1963ZM36.7857 35.8034C36.7857 36.3459 36.346 36.7856 35.8035 36.7856H14.1964C13.654 36.7856 13.2143 36.3459 13.2143 35.8034V23.0356H36.7857V35.8034Z" fill="white"/>
<path d="M19.1076 25H17.1433C16.6009 25 16.1611 25.4397 16.1611 25.9822C16.1611 26.5246 16.6009 26.9643 17.1433 26.9643H19.1076C19.65 26.9643 20.0897 26.5246 20.0897 25.9822C20.0897 25.4397 19.65 25 19.1076 25Z" fill="white"/>
<path d="M25.9826 25H24.0183C23.4759 25 23.0361 25.4397 23.0361 25.9822C23.0361 26.5246 23.4759 26.9643 24.0183 26.9643H25.9826C26.525 26.9643 26.9647 26.5246 26.9647 25.9822C26.9647 25.4397 26.525 25 25.9826 25Z" fill="white"/>
<path d="M32.8576 25H30.8933C30.3509 25 29.9111 25.4397 29.9111 25.9822C29.9111 26.5246 30.3509 26.9643 30.8933 26.9643H32.8576C33.4 26.9643 33.8397 26.5246 33.8397 25.9822C33.8397 25.4397 33.3999 25 32.8576 25Z" fill="white"/>
<path d="M19.1076 28.9287H17.1433C16.6009 28.9287 16.1611 29.3684 16.1611 29.9109C16.1611 30.4533 16.6009 30.893 17.1433 30.893H19.1076C19.65 30.893 20.0897 30.4533 20.0897 29.9109C20.0897 29.3684 19.65 28.9287 19.1076 28.9287Z" fill="white"/>
<path d="M25.9826 28.9287H24.0183C23.4759 28.9287 23.0361 29.3684 23.0361 29.9109C23.0361 30.4533 23.4759 30.893 24.0183 30.893H25.9826C26.525 30.893 26.9647 30.4533 26.9647 29.9109C26.9647 29.3684 26.525 28.9287 25.9826 28.9287Z" fill="white"/>
<path d="M32.8576 28.9287H30.8933C30.3509 28.9287 29.9111 29.3684 29.9111 29.9109C29.9111 30.4533 30.3509 30.893 30.8933 30.893H32.8576C33.4 30.893 33.8397 30.4533 33.8397 29.9109C33.8397 29.3684 33.3999 28.9287 32.8576 28.9287Z" fill="white"/>
<path d="M19.1076 32.8574H17.1433C16.6009 32.8574 16.1611 33.2971 16.1611 33.8396C16.1611 34.382 16.6009 34.8217 17.1433 34.8217H19.1076C19.65 34.8217 20.0897 34.382 20.0897 33.8395C20.0897 33.2971 19.65 32.8574 19.1076 32.8574Z" fill="white"/>
<path d="M25.9826 32.8574H24.0183C23.4759 32.8574 23.0361 33.2971 23.0361 33.8396C23.0361 34.382 23.4759 34.8217 24.0183 34.8217H25.9826C26.525 34.8217 26.9647 34.382 26.9647 33.8396C26.9647 33.2971 26.525 32.8574 25.9826 32.8574Z" fill="white"/>
<path d="M32.8576 32.8574H30.8933C30.3509 32.8574 29.9111 33.2971 29.9111 33.8396C29.9111 34.382 30.3509 34.8217 30.8933 34.8217H32.8576C33.4 34.8217 33.8397 34.382 33.8397 33.8396C33.8397 33.2971 33.3999 32.8574 32.8576 32.8574Z" fill="white"/>
</g>
<defs>
<clipPath id="clip0_8_9846">
<rect width="27.5" height="27.5" fill="white" transform="translate(11.25 11.25)"/>
</clipPath>
</defs>
</svg>
