<svg width="50" height="50" viewBox="0 0 50 50" fill="none" xmlns="http://www.w3.org/2000/svg">
<rect x="0.360352" y="0.360352" width="48.96" height="48.96" rx="12.24" fill="#7F56D9"/>
<g clip-path="url(#clip0_2135_20170)">
<path d="M37.2709 30.2588H36.1872V29.3026H37.2709C38.0359 29.3026 38.6734 28.6651 38.6734 27.9001V21.2063C38.6734 19.9951 37.6534 18.9751 36.4422 18.9751H29.4297C28.2184 18.9751 27.1984 19.9951 27.1984 21.2063V27.9001C27.1984 28.6651 27.8359 29.3026 28.6009 29.3026H29.6847V30.2588H28.6009C27.2622 30.2588 26.2422 29.1751 26.2422 27.9001V21.2063C26.2422 19.4213 27.6447 18.0188 29.4297 18.0188H36.5059C38.2909 18.0188 39.6934 19.4213 39.6934 21.2063V27.9001C39.6934 29.2388 38.6097 30.2588 37.2709 30.2588ZM32.9359 16.9988C31.0234 16.9988 29.4297 15.4051 29.4297 13.4926C29.4297 11.5801 31.0234 9.98633 32.9359 9.98633C34.8484 9.98633 36.4422 11.5801 36.4422 13.4926C36.4422 15.4051 34.9122 16.9988 32.9359 16.9988ZM32.9359 11.0063C31.5334 11.0063 30.3859 12.1538 30.3859 13.5563C30.3859 14.9588 31.5334 16.1063 32.9359 16.1063C34.3384 16.1063 35.4859 14.9588 35.4859 13.5563C35.4859 12.1538 34.3384 11.0063 32.9359 11.0063Z" fill="#F5F5F4"/>
<path d="M34.594 39.6939C33.9565 39.6939 33.3827 39.3752 33.0002 38.9289C32.6177 39.3752 32.044 39.6939 31.4065 39.6939C30.259 39.6939 29.3027 38.7377 29.3027 37.5902V22.0352H30.259V37.5902C30.259 38.2277 30.769 38.7377 31.4065 38.7377C32.044 38.7377 32.4902 38.1639 32.4902 37.5902V29.8127H33.4465V37.5902C33.4465 38.2277 33.9565 38.7377 34.594 38.7377C35.2315 38.7377 35.7415 38.2277 35.7415 37.5902V22.0352H36.6977V37.5902C36.6977 38.7377 35.7415 39.6939 34.594 39.6939Z" fill="#F5F5F4"/>
<path d="M27.7086 33.0634H10.0498V13.0459H28.0273V14.0021H11.0061V32.1071H27.7086V33.0634Z" fill="#F5F5F4"/>
<path d="M24.5851 21.9717H13.6201V22.9279H24.5851V21.9717Z" fill="#F5F5F4"/>
<path d="M24.5851 25.2227H13.6201V26.1789H24.5851V25.2227Z" fill="#F5F5F4"/>
<path d="M24.5851 28.5371H13.6201V29.4934H24.5851V28.5371Z" fill="#F5F5F4"/>
</g>
<defs>
<clipPath id="clip0_2135_20170">
<rect width="30.6" height="30.6" fill="white" transform="translate(9.54004 9.54004)"/>
</clipPath>
</defs>
</svg>
