<svg width="21" height="21" viewBox="0 0 21 21" fill="none" xmlns="http://www.w3.org/2000/svg">
<path d="M10.9747 2.35217C9.57191 2.35187 8.19297 2.71474 6.97206 3.40548C5.75115 4.09621 4.72987 5.09128 4.00762 6.29381C3.28537 7.49635 2.88677 8.86539 2.8506 10.2677C2.81443 11.67 3.14194 13.0578 3.80124 14.2959L2.91452 16.9561C2.84107 17.1763 2.83041 17.4127 2.88373 17.6386C2.93706 17.8646 3.05226 18.0712 3.21643 18.2354C3.3806 18.3996 3.58725 18.5148 3.81321 18.5681C4.03917 18.6214 4.27552 18.6108 4.49577 18.5373L7.15592 17.6506C8.24559 18.2302 9.45297 18.5539 10.6864 18.5972C11.9199 18.6405 13.147 18.4022 14.2746 17.9004C15.4022 17.3986 16.4007 16.6466 17.1942 15.7013C17.9878 14.756 18.5556 13.6424 18.8545 12.4449C19.1534 11.2475 19.1755 9.99764 18.9193 8.79033C18.6631 7.58301 18.1352 6.44994 17.3756 5.47711C16.6161 4.50428 15.6449 3.71727 14.5359 3.17581C13.4268 2.63435 12.2089 2.35268 10.9747 2.35217ZM10.9747 17.3522C9.76606 17.353 8.57866 17.0347 7.53249 16.4295C7.45589 16.3851 7.37073 16.3575 7.28264 16.3484C7.19456 16.3394 7.10556 16.3492 7.02155 16.3772L4.09967 17.3522L5.07389 14.4303C5.10198 14.3463 5.1119 14.2574 5.10301 14.1693C5.09412 14.0812 5.06662 13.996 5.02233 13.9194C4.2645 12.6091 3.96023 11.0854 4.15673 9.58464C4.35323 8.08385 5.03951 6.68984 6.10912 5.61889C7.17872 4.54793 8.57186 3.85988 10.0724 3.66149C11.573 3.46309 13.097 3.76543 14.4082 4.52161C15.7194 5.27779 16.7444 6.44554 17.3242 7.8437C17.904 9.24186 18.0061 10.7923 17.6149 12.2544C17.2236 13.7166 16.3607 15.0087 15.1601 15.9305C13.9595 16.8522 12.4883 17.3519 10.9747 17.3522Z" fill="white"/>
</svg>
