<svg width="173" height="173" viewBox="0 0 173 173" fill="none" xmlns="http://www.w3.org/2000/svg">
<path d="M79.8882 153.221L79.918 150.919L88.1675 151.026L88.1376 153.328L79.8882 153.221ZM87.0712 166.533L87.2722 151.014L90.2032 151.052L90.0022 166.571L87.0712 166.533ZM80.8765 160.046L80.9056 157.797L88.0786 157.89L88.0494 160.139L80.8765 160.046ZM79.749 166.438L79.779 164.125L87.9964 164.231L87.9665 166.544L79.749 166.438Z" fill="white"/>
<path d="M70.9627 160.947L69.8253 156.9L66.9325 159.972L63.9591 159.253L68.582 154.559L66.5362 148.011L69.5096 148.73L70.7494 152.989L73.8091 149.77L76.7825 150.489L71.9802 155.381L73.9257 161.664L70.9627 160.947Z" fill="white"/>
<path d="M55.338 153.403L61.464 141.093L63.9928 142.351L56.8791 156.646L54.5411 155.483L55.338 153.403ZM50.2349 147.03L50.3346 146.829C50.7082 146.079 51.1439 145.426 51.6418 144.872C52.1302 144.322 52.6617 143.892 53.2363 143.582C53.8077 143.279 54.4112 143.119 55.0468 143.102C55.6728 143.088 56.3103 143.243 56.9592 143.566C57.5954 143.882 58.0887 144.279 58.4392 144.755C58.7865 145.237 59.01 145.785 59.1097 146.398C59.2093 147.011 59.209 147.666 59.1086 148.362C58.9987 149.061 58.8142 149.791 58.555 150.551L58.2369 151.19C57.7647 151.9 57.2797 152.516 56.7817 153.038C56.2742 153.563 55.7459 153.971 55.1967 154.261C54.6443 154.558 54.0741 154.715 53.4862 154.732C52.892 154.745 52.2799 154.596 51.6501 154.282C50.9949 153.956 50.4808 153.546 50.1081 153.05C49.729 152.552 49.4832 151.985 49.3708 151.35C49.2583 150.715 49.2761 150.033 49.4241 149.305C49.5721 148.577 49.8423 147.819 50.2349 147.03ZM52.8635 148.088L52.7637 148.288C52.5358 148.746 52.3666 149.19 52.2562 149.619C52.1426 150.055 52.0989 150.461 52.1251 150.84C52.148 151.224 52.2551 151.567 52.4464 151.869C52.6376 152.17 52.9273 152.417 53.3154 152.611C53.7034 152.804 54.0691 152.906 54.4123 152.918C54.7556 152.93 55.0748 152.863 55.3701 152.716C55.6654 152.57 55.9446 152.359 56.2079 152.086C56.4616 151.815 56.7009 151.494 56.9258 151.121L57.7141 149.537C57.8912 149.038 57.9904 148.559 58.0117 148.102C58.0331 147.644 57.9402 147.225 57.7329 146.844C57.5192 146.46 57.1547 146.139 56.6394 145.883C56.2514 145.69 55.8778 145.611 55.5188 145.647C55.1597 145.682 54.8199 145.807 54.4994 146.021C54.1756 146.24 53.8775 146.529 53.6048 146.885C53.3322 147.241 53.0851 147.642 52.8635 148.088Z" fill="white"/>
<path d="M34.8121 148.634L45.185 135.967L47.3704 137.756L36.9975 150.423L34.8121 148.634Z" fill="white"/>
<path d="M33.803 132.905L33.6262 133.042C32.9583 133.561 32.2696 133.943 31.5602 134.188C30.8451 134.437 30.1383 134.54 29.4397 134.498C28.741 134.456 28.0718 134.26 27.432 133.911C26.7866 133.567 26.2024 133.058 25.6795 132.384C25.1478 131.7 24.7949 131.002 24.621 130.291C24.4371 129.579 24.4111 128.88 24.5432 128.192C24.6753 127.505 24.9506 126.846 25.3693 126.215C25.7824 125.588 26.3229 125.016 26.9908 124.497L27.1676 124.36C27.8299 123.845 28.5186 123.464 29.2336 123.214C29.9431 122.969 30.6499 122.866 31.3542 122.904C32.0528 122.946 32.722 123.142 33.3618 123.49C34.0016 123.839 34.5851 124.353 35.1125 125.033C35.6355 125.706 35.9889 126.399 36.1728 127.111C36.3567 127.823 36.3827 128.522 36.2506 129.209C36.113 129.901 35.8376 130.56 35.4245 131.187C35.0058 131.818 34.4653 132.391 33.803 132.905ZM31.9003 130.82L32.0771 130.682C32.4756 130.373 32.8184 130.044 33.1053 129.695C33.3923 129.346 33.6045 128.988 33.7419 128.62C33.8793 128.253 33.9236 127.881 33.8746 127.505C33.8157 127.128 33.6446 126.757 33.3613 126.392C33.0824 126.033 32.7697 125.781 32.4233 125.636C32.0713 125.496 31.7002 125.446 31.31 125.489C30.9155 125.525 30.5137 125.639 30.1047 125.831C29.6957 126.022 29.292 126.273 28.8935 126.582L28.7167 126.72C28.3238 127.025 27.9867 127.349 27.7053 127.694C27.4183 128.043 27.2083 128.404 27.0753 128.777C26.9323 129.149 26.8874 129.525 26.9407 129.907C26.984 130.287 27.1473 130.66 27.4306 131.024C27.7095 131.384 28.0278 131.631 28.3854 131.768C28.7375 131.908 29.1114 131.955 29.5072 131.909C29.8973 131.867 30.2969 131.75 30.7059 131.558C31.1093 131.371 31.5075 131.125 31.9003 130.82Z" fill="white"/>
<path d="M19.5005 116.978L27.82 113.104L29.008 115.655L18.553 120.524L17.428 118.108L19.5005 116.978ZM15.8169 114.825L18.2119 113.757C18.2521 113.911 18.3078 114.081 18.3789 114.267C18.447 114.447 18.5171 114.614 18.5891 114.769C18.7721 115.162 18.9873 115.481 19.2349 115.726C19.4759 115.975 19.7428 116.152 20.0355 116.259C20.3252 116.359 20.639 116.393 20.9769 116.361C21.3083 116.332 21.6574 116.24 22.0241 116.085L22.213 116.667C21.5495 116.976 20.9028 117.195 20.2729 117.324C19.643 117.453 19.0555 117.487 18.5104 117.428C17.9652 117.368 17.4867 117.199 17.0748 116.92C16.6534 116.638 16.3243 116.243 16.0873 115.734C16.0213 115.592 15.9637 115.435 15.9144 115.262C15.8557 115.085 15.8232 114.94 15.8169 114.825Z" fill="white"/>
<path d="M23.4738 98.8101C23.6572 99.6646 23.6831 100.462 23.5513 101.203C23.4195 101.943 23.1585 102.606 22.7681 103.191C22.3693 103.771 21.8674 104.261 21.2626 104.659C20.6493 105.053 19.9605 105.331 19.1962 105.495L18.7794 105.585C17.9109 105.771 17.0955 105.815 16.3331 105.717C15.5638 105.621 14.8728 105.399 14.2603 105.05C13.6477 104.702 13.1339 104.238 12.7188 103.659C12.3036 103.079 12.0133 102.404 11.8478 101.633C11.6762 100.834 11.6604 100.099 11.8001 99.4299C11.9329 98.7618 12.1984 98.1706 12.5968 97.6563C12.9951 97.142 13.5124 96.7075 14.1485 96.3529C14.7777 95.9998 15.5022 95.7353 16.3221 95.5593L17.4789 95.311L19.3759 104.149L17.4792 104.556L16.1638 98.4278L15.9553 98.4725C15.5206 98.5804 15.139 98.7495 14.8105 98.9799C14.4751 99.2118 14.234 99.5106 14.0872 99.8765C13.9335 100.244 13.9111 100.681 14.0199 101.188C14.1079 101.598 14.2751 101.937 14.5213 102.204C14.7591 102.465 15.063 102.661 15.4328 102.793C15.7941 102.919 16.2076 102.983 16.6731 102.984C17.1386 102.986 17.6424 102.929 18.1843 102.813L18.6012 102.723C19.0736 102.622 19.4979 102.465 19.874 102.254C20.2487 102.035 20.5585 101.769 20.8036 101.455C21.0402 101.135 21.2039 100.78 21.2945 100.39C21.3768 99.9943 21.3687 99.5672 21.2703 99.1086C21.1465 98.532 20.9235 98.0347 20.6012 97.617C20.2705 97.1937 19.8456 96.8561 19.3263 96.6042L20.467 94.9094C20.8651 95.0711 21.2672 95.3191 21.6733 95.6534C22.0779 95.9809 22.4413 96.4043 22.7636 96.9239C23.079 97.4449 23.3157 98.0736 23.4738 98.8101Z" fill="white"/>
<path d="M7.20821 74.2897L7.80471 71.824L20.157 70.4475L9.79719 63.5876L10.3962 61.1115L24.1248 70.3655L23.6461 72.3443L7.20821 74.2897ZM6.90746 75.533L7.49142 73.119L18.0294 75.2077L22.6812 76.333L21.992 79.1821L6.90746 75.533ZM10.1105 62.2926L10.6969 59.8683L25.7814 63.5174L25.0922 66.3665L20.4405 65.2412L10.1105 62.2926Z" fill="white"/>
<path d="M21.8723 59.0801L21.6719 58.9804C20.9148 58.6037 20.272 58.1489 19.7435 57.616C19.2086 57.0799 18.8086 56.488 18.5436 55.8402C18.2786 55.1924 18.1645 54.5046 18.2013 53.7768C18.2316 53.0458 18.4368 52.2986 18.8167 51.5352C19.2029 50.759 19.6784 50.1384 20.2432 49.6734C20.8048 49.1988 21.4239 48.8719 22.1005 48.6926C22.777 48.5134 23.4904 48.4755 24.2406 48.5789C24.9844 48.6792 25.7349 48.9177 26.4919 49.2945L26.6923 49.3942C27.443 49.7678 28.0858 50.2226 28.6207 50.7586C29.1493 51.2915 29.5492 51.8835 29.8206 52.5344C30.0856 53.1822 30.1997 53.87 30.1629 54.5978C30.1262 55.3257 29.9163 56.0745 29.5332 56.8442C29.1533 57.6077 28.6826 58.2267 28.121 58.7012C27.5594 59.1758 26.9403 59.5027 26.2637 59.682C25.5808 59.8581 24.8674 59.896 24.1236 59.7957C23.3734 59.6922 22.623 59.4537 21.8723 59.0801ZM22.9256 56.4611L23.126 56.5608C23.5777 56.7856 24.0229 56.9516 24.4616 57.0588C24.9004 57.1661 25.3152 57.2018 25.706 57.1661C26.0968 57.1304 26.4509 57.009 26.7683 56.8018C27.0825 56.5851 27.3425 56.27 27.5483 55.8565C27.7509 55.4493 27.8423 55.0583 27.8226 54.6833C27.7964 54.3052 27.6798 53.9495 27.4726 53.6162C27.2685 53.2765 26.9914 52.964 26.6413 52.6787C26.2912 52.3933 25.8903 52.1383 25.4386 51.9135L25.2382 51.8138C24.7929 51.5922 24.354 51.4293 23.9216 51.3253C23.4829 51.2181 23.0665 51.1855 22.6725 51.2275C22.2754 51.2601 21.9165 51.3831 21.5959 51.5966C21.2722 51.8006 21.0074 52.1094 20.8016 52.5229C20.599 52.9301 20.5139 53.3243 20.5464 53.7056C20.5726 54.0837 20.6924 54.441 20.906 54.7775C21.1132 55.1108 21.3918 55.4201 21.7419 55.7054C22.0857 55.9876 22.4802 56.2395 22.9256 56.4611Z" fill="white"/>
<path d="M30.0177 39.2852L37.1182 45.0997L35.3354 47.2769L26.4123 39.9699L28.1006 37.9082L30.0177 39.2852ZM30.3592 35.0323L32.361 36.7266C32.2399 36.8295 32.1109 36.9534 31.9738 37.0984C31.8413 37.2378 31.721 37.3735 31.6129 37.5055C31.3383 37.8408 31.1441 38.1732 31.0305 38.5027C30.9114 38.8276 30.8672 39.1451 30.8981 39.4551C30.9335 39.7596 31.0389 40.0571 31.2142 40.3477C31.3841 40.6337 31.6185 40.9083 31.9173 41.1714L31.4747 41.5942C30.9084 41.1305 30.4306 40.6428 30.0414 40.1312C29.6521 39.6196 29.3661 39.1052 29.1833 38.5881C29.0005 38.0711 28.9452 37.5666 29.0174 37.0746C29.0886 36.5727 29.3021 36.1045 29.6578 35.6702C29.7568 35.5493 29.8736 35.4291 30.0081 35.3096C30.1417 35.1802 30.2587 35.0877 30.3592 35.0323Z" fill="white"/>
<path d="M48.1092 34.9821C47.4188 35.5182 46.7115 35.8875 45.9871 36.0901C45.2627 36.2927 44.5522 36.3451 43.8555 36.2474C43.16 36.1396 42.5015 35.8997 41.8798 35.5278C41.2593 35.1459 40.7094 34.6462 40.23 34.0288L39.9685 33.6921C39.4237 32.9905 39.0301 32.275 38.7876 31.5456C38.5408 30.8106 38.4413 30.0916 38.4892 29.3887C38.5372 28.6857 38.7321 28.0215 39.0742 27.396C39.4162 26.7705 39.8987 26.2159 40.5217 25.7322C41.1672 25.231 41.8219 24.898 42.4858 24.7334C43.1453 24.5632 43.7932 24.5459 44.4294 24.6817C45.0656 24.8174 45.6815 25.095 46.2769 25.5142C46.8681 25.9279 47.4208 26.4659 47.935 27.1282L48.6607 28.0627L41.5214 33.6064L40.3316 32.0741L45.2819 28.2302L45.1512 28.0618C44.8654 27.7169 44.5475 27.4465 44.1974 27.2505C43.8429 27.0489 43.469 26.9614 43.0757 26.9878C42.6781 27.0087 42.2744 27.1782 41.8647 27.4964C41.5335 27.7535 41.3011 28.0509 41.1675 28.3886C41.0351 28.7163 40.9899 29.0753 41.032 29.4655C41.0753 29.8457 41.1972 30.2459 41.3975 30.6661C41.5979 31.0864 41.868 31.5154 42.208 31.9531L42.4694 32.2899C42.7658 32.6716 43.0909 32.9859 43.4447 33.233C43.8041 33.4758 44.1785 33.6393 44.568 33.7238C44.9587 33.7983 45.3495 33.7917 45.7403 33.7042C46.1324 33.6066 46.5137 33.414 46.8841 33.1264C47.35 32.7647 47.7012 32.348 47.9378 31.8764C48.1756 31.3948 48.2954 30.8655 48.2971 30.2883L50.319 30.5807C50.3461 31.0095 50.2971 31.4794 50.172 31.9903C50.0526 32.4969 49.8287 33.0081 49.5005 33.5239C49.1679 34.0341 48.7041 34.5202 48.1092 34.9821Z" fill="white"/>
<path d="M75.152 15.0474L75.6195 17.2255L69.9189 18.4492L69.4513 16.271L75.152 15.0474Z" fill="white"/>
<path d="M107.957 22.9417L107.415 25.1795L99.3964 23.2396L99.9378 21.0018L107.957 22.9417ZM103.916 8.36565L100.267 23.4502L97.4176 22.7609L101.067 7.67642L103.916 8.36565ZM108.512 16.0683L107.983 18.2544L101.01 16.5676L101.539 14.3816L108.512 16.0683ZM111.033 10.0875L110.489 12.3356L102.502 10.4033L103.046 8.15512L111.033 10.0875Z" fill="white"/>
<path d="M118.377 17.3942L118.585 21.5935L122.089 19.2415L124.828 20.6044L119.276 24.152L119.813 30.9915L117.075 29.6286L116.814 25.2006L113.114 27.6578L110.376 26.2949L116.146 22.5944L115.647 16.0361L118.377 17.3942Z" fill="white"/>
<path d="M131.932 28.2274L123.22 38.8658L121.035 37.0762L131.151 24.7224L133.172 26.377L131.932 28.2274ZM135.489 35.5763L135.347 35.7495C134.816 36.3983 134.246 36.9372 133.637 37.3665C133.039 37.7947 132.425 38.0957 131.796 38.2694C131.171 38.4376 130.547 38.4594 129.924 38.3346C129.31 38.2089 128.723 37.9164 128.163 37.4572C127.613 37.0069 127.22 36.5108 126.984 35.9687C126.753 35.4211 126.657 34.8374 126.696 34.2174C126.735 33.5975 126.882 32.9593 127.134 32.3029C127.397 31.6456 127.739 30.9752 128.161 30.2919L128.614 29.7394C129.232 29.1527 129.842 28.6602 130.443 28.262C131.055 27.8628 131.661 27.5828 132.261 27.422C132.865 27.2558 133.456 27.2298 134.033 27.344C134.616 27.4628 135.179 27.745 135.723 28.1907C136.289 28.6544 136.699 29.1691 136.952 29.7347C137.211 30.3048 137.325 30.912 137.293 31.5565C137.261 32.201 137.092 32.8616 136.786 33.5384C136.48 34.2153 136.047 34.8946 135.489 35.5763ZM133.162 33.9599L133.304 33.7867C133.628 33.3909 133.891 32.996 134.095 32.6021C134.302 32.2027 134.435 31.8158 134.494 31.4413C134.557 31.0614 134.529 30.7031 134.41 30.3666C134.29 30.03 134.063 29.7245 133.728 29.4498C133.392 29.1752 133.059 28.9938 132.727 28.9057C132.395 28.8175 132.069 28.8121 131.748 28.8895C131.428 28.9669 131.108 29.1097 130.791 29.3181C130.483 29.5255 130.178 29.7856 129.876 30.0984L128.755 31.4674C128.472 31.9148 128.268 32.3592 128.146 32.8006C128.023 33.242 128.02 33.6715 128.138 34.089C128.261 34.5111 128.545 34.9044 128.99 35.2691C129.325 35.5437 129.672 35.7036 130.03 35.7488C130.388 35.7939 130.747 35.7481 131.107 35.6112C131.472 35.4689 131.826 35.2543 132.171 34.9674C132.517 34.6806 132.847 34.3448 133.162 33.9599Z" fill="white"/>
<path d="M150.881 37.4446L137.95 47.4859L136.217 45.2549L149.149 35.2136L150.881 37.4446Z" fill="white"/>
<path d="M148.366 53.0032L148.569 52.9087C149.336 52.5517 150.092 52.3327 150.838 52.2517C151.591 52.1678 152.303 52.2241 152.975 52.4208C153.646 52.6175 154.255 52.9572 154.801 53.4397C155.354 53.9192 155.81 54.5455 156.17 55.3185C156.536 56.1044 156.725 56.8631 156.736 57.5946C156.757 58.3296 156.627 59.0174 156.345 59.6581C156.063 60.2988 155.648 60.8802 155.1 61.4022C154.557 61.9212 153.903 62.3592 153.136 62.7162L152.934 62.8108C152.173 63.1648 151.417 63.3837 150.664 63.4677C149.918 63.5487 149.206 63.4923 148.528 63.2986C147.856 63.1019 147.247 62.7623 146.701 62.2798C146.155 61.7973 145.701 61.1663 145.338 60.3868C144.978 59.6138 144.787 58.8598 144.766 58.1249C144.745 57.3899 144.876 56.7021 145.157 56.0614C145.446 55.4176 145.861 54.8363 146.403 54.3173C146.952 53.7952 147.606 53.3572 148.366 53.0032ZM149.757 55.4596L149.554 55.5541C149.097 55.7671 148.689 56.0117 148.332 56.2879C147.975 56.5641 147.688 56.8661 147.472 57.1939C147.256 57.5217 147.131 57.8743 147.095 58.2516C147.068 58.6324 147.152 59.0321 147.347 59.4508C147.539 59.8631 147.788 60.1784 148.094 60.3967C148.406 60.612 148.756 60.7426 149.146 60.7884C149.539 60.8407 149.956 60.8189 150.397 60.7231C150.839 60.6272 151.288 60.4728 151.746 60.2598L151.948 60.1653C152.399 59.9553 152.8 59.7137 153.151 59.4405C153.509 59.1644 153.794 58.8591 154.006 58.5249C154.229 58.1941 154.356 57.8368 154.389 57.453C154.432 57.0727 154.355 56.6732 154.16 56.2545C153.968 55.8422 153.713 55.5299 153.395 55.3176C153.083 55.1023 152.729 54.9732 152.332 54.9304C151.943 54.8846 151.527 54.9096 151.086 55.0054C150.651 55.0982 150.208 55.2496 149.757 55.4596Z" fill="white"/>
<path d="M158.765 71.713L149.792 73.6391L149.201 70.8878L160.478 68.4672L161.037 71.0727L158.765 71.713ZM161.877 74.6316L159.304 75.1403C159.299 74.9815 159.283 74.8033 159.255 74.6058C159.229 74.4152 159.198 74.2365 159.162 74.0698C159.071 73.646 158.932 73.2869 158.745 72.9927C158.565 72.697 158.345 72.4645 158.083 72.2954C157.823 72.1332 157.525 72.03 157.188 71.986C156.859 71.9404 156.498 71.9525 156.106 72.0221L156.051 71.4124C156.767 71.2588 157.446 71.1893 158.089 71.204C158.731 71.2186 159.312 71.3157 159.83 71.4952C160.348 71.6747 160.777 71.946 161.117 72.3092C161.465 72.6778 161.698 73.1366 161.816 73.6855C161.848 73.8383 161.87 74.0046 161.879 74.1842C161.897 74.3693 161.896 74.5185 161.877 74.6316Z" fill="white"/>
<path d="M150.848 88.5408C150.859 87.6668 151.011 86.8835 151.305 86.1908C151.598 85.4982 152 84.91 152.511 84.4262C153.029 83.9497 153.627 83.5843 154.305 83.3302C154.991 83.0832 155.724 82.9648 156.506 82.9749L156.932 82.9805C157.82 82.992 158.625 83.1303 159.347 83.3955C160.075 83.6608 160.699 84.0313 161.219 84.5071C161.739 84.9828 162.136 85.5494 162.412 86.2068C162.688 86.8642 162.821 87.5872 162.81 88.3759C162.8 89.1931 162.652 89.9125 162.367 90.5342C162.089 91.1559 161.698 91.6732 161.195 92.086C160.693 92.4988 160.092 92.8072 159.393 93.0114C158.701 93.2156 157.935 93.3123 157.097 93.3014L155.914 93.2861L156.031 84.248L157.971 84.2731L157.89 90.5401L158.103 90.5429C158.551 90.5345 158.96 90.4545 159.332 90.303C159.71 90.1515 160.012 89.9138 160.236 89.5898C160.468 89.2659 160.587 88.8446 160.594 88.3259C160.599 87.9067 160.512 87.5395 160.331 87.2245C160.157 86.9167 159.905 86.6576 159.574 86.4472C159.249 86.244 158.86 86.0897 158.407 85.9844C157.953 85.879 157.45 85.8227 156.895 85.8155L156.469 85.81C155.986 85.8038 155.537 85.8619 155.124 85.9845C154.71 86.1141 154.348 86.3049 154.04 86.5567C153.738 86.8158 153.499 87.1254 153.324 87.4855C153.156 87.8529 153.069 88.2711 153.063 88.74C153.055 89.3298 153.162 89.8642 153.383 90.3432C153.611 90.8294 153.95 91.2531 154.4 91.6142L152.911 93.0127C152.559 92.7665 152.222 92.4353 151.901 92.0189C151.579 91.6097 151.319 91.1159 151.12 90.5377C150.929 89.9596 150.838 89.294 150.848 88.5408Z" fill="white"/>
<path d="M161.249 116.066L160.119 118.338L147.77 116.931L156.344 125.924L155.209 128.205L143.883 116.128L144.79 114.305L161.249 116.066ZM161.819 114.921L160.712 117.145L150.903 112.763L146.619 110.631L147.925 108.007L161.819 114.921ZM155.75 127.117L154.639 129.35L140.744 122.436L142.05 119.811L146.335 121.944L155.75 127.117Z" fill="white"/>
<path d="M143.569 127.631L143.742 127.773C144.396 128.309 144.922 128.895 145.318 129.532C145.721 130.174 145.979 130.84 146.093 131.531C146.207 132.221 146.166 132.917 145.968 133.619C145.775 134.324 145.409 135.007 144.869 135.667C144.32 136.338 143.718 136.837 143.064 137.165C142.411 137.502 141.734 137.683 141.035 137.708C140.335 137.732 139.632 137.61 138.923 137.342C138.22 137.079 137.542 136.679 136.888 136.144L136.714 136.002C136.066 135.471 135.54 134.884 135.138 134.242C134.741 133.605 134.483 132.939 134.363 132.244C134.249 131.554 134.291 130.858 134.489 130.156C134.686 129.455 135.058 128.772 135.602 128.106C136.143 127.447 136.739 126.948 137.393 126.61C138.046 126.273 138.722 126.092 139.421 126.067C140.126 126.048 140.83 126.169 141.533 126.433C142.242 126.701 142.92 127.1 143.569 127.631ZM141.959 129.95L141.786 129.808C141.396 129.489 140.999 129.228 140.595 129.026C140.191 128.824 139.794 128.696 139.405 128.644C139.016 128.592 138.644 128.632 138.289 128.763C137.934 128.904 137.61 129.154 137.318 129.511C137.03 129.863 136.854 130.224 136.789 130.594C136.731 130.968 136.765 131.341 136.893 131.712C137.016 132.089 137.217 132.455 137.495 132.811C137.773 133.167 138.107 133.505 138.497 133.825L138.67 133.966C139.055 134.282 139.447 134.538 139.845 134.736C140.249 134.938 140.648 135.062 141.041 135.109C141.436 135.166 141.813 135.126 142.173 134.989C142.534 134.862 142.861 134.62 143.154 134.262C143.442 133.911 143.612 133.545 143.666 133.166C143.724 132.792 143.687 132.417 143.553 132.041C143.426 131.67 143.223 131.307 142.945 130.95C142.673 130.599 142.344 130.265 141.959 129.95Z" fill="white"/>
<path d="M131.223 145.118L125.594 137.869L127.817 136.143L134.89 145.253L132.785 146.887L131.223 145.118ZM129.944 149.188L128.369 147.091C128.51 147.017 128.663 146.925 128.829 146.815C128.989 146.708 129.137 146.603 129.272 146.498C129.614 146.232 129.877 145.951 130.061 145.655C130.25 145.365 130.363 145.065 130.402 144.756C130.436 144.452 130.399 144.138 130.293 143.816C130.191 143.499 130.023 143.179 129.791 142.856L130.316 142.542C130.765 143.121 131.122 143.702 131.388 144.288C131.654 144.873 131.818 145.438 131.881 145.983C131.944 146.528 131.886 147.032 131.706 147.496C131.525 147.969 131.213 148.378 130.769 148.722C130.646 148.818 130.505 148.909 130.348 148.996C130.189 149.092 130.054 149.156 129.944 149.188Z" fill="white"/>
<path d="M112.628 145.287C113.42 144.918 114.192 144.715 114.943 144.679C115.694 144.642 116.399 144.749 117.056 145C117.71 145.259 118.299 145.64 118.822 146.141C119.342 146.651 119.767 147.261 120.097 147.969L120.277 148.356C120.652 149.161 120.877 149.946 120.951 150.711C121.028 151.483 120.965 152.206 120.762 152.88C120.559 153.555 120.221 154.159 119.748 154.693C119.275 155.227 118.682 155.66 117.967 155.993C117.226 156.338 116.513 156.517 115.83 156.53C115.149 156.549 114.513 156.421 113.923 156.148C113.333 155.874 112.794 155.466 112.307 154.925C111.823 154.39 111.404 153.742 111.05 152.982L110.55 151.91L118.744 148.094L119.563 149.852L113.882 152.498L113.972 152.692C114.173 153.091 114.423 153.426 114.721 153.695C115.022 153.97 115.367 154.139 115.756 154.2C116.148 154.269 116.58 154.193 117.05 153.974C117.43 153.797 117.723 153.559 117.928 153.259C118.13 152.969 118.254 152.629 118.3 152.24C118.342 151.859 118.312 151.442 118.211 150.988C118.109 150.534 117.941 150.055 117.707 149.553L117.527 149.166C117.323 148.728 117.076 148.349 116.786 148.03C116.49 147.713 116.161 147.47 115.8 147.301C115.436 147.142 115.053 147.061 114.653 147.06C114.249 147.067 113.834 147.17 113.409 147.368C112.874 147.617 112.439 147.945 112.104 148.353C111.765 148.769 111.53 149.259 111.4 149.821L109.494 149.086C109.563 148.662 109.715 148.215 109.951 147.744C110.18 147.277 110.512 146.828 110.947 146.399C111.385 145.975 111.945 145.605 112.628 145.287Z" fill="white"/>
</svg>
