<svg width="25" height="24" viewBox="0 0 25 24" fill="none" xmlns="http://www.w3.org/2000/svg">
<g clip-path="url(#clip0_533_800)">
<path d="M24.1025 8.33812L12.8525 2.33812C12.744 2.28034 12.6229 2.25012 12.5 2.25012C12.3771 2.25012 12.256 2.28034 12.1475 2.33812L0.89751 8.33812C0.777514 8.40207 0.67716 8.49744 0.607185 8.61403C0.537209 8.73061 0.500244 8.86402 0.500244 9C0.500244 9.13597 0.537209 9.26938 0.607185 9.38597C0.67716 9.50255 0.777514 9.59792 0.89751 9.66187L3.50001 11.0503V15.5897C3.49914 15.9581 3.63474 16.3138 3.88064 16.5881C5.10876 17.9559 7.86032 20.25 12.5 20.25C14.0384 20.2627 15.5653 19.9841 17 19.4287V22.5C17 22.6989 17.079 22.8897 17.2197 23.0303C17.3603 23.171 17.5511 23.25 17.75 23.25C17.9489 23.25 18.1397 23.171 18.2803 23.0303C18.421 22.8897 18.5 22.6989 18.5 22.5V18.7041C19.478 18.1395 20.3618 17.4256 21.1194 16.5881C21.3653 16.3138 21.5009 15.9581 21.5 15.5897V11.0503L24.1025 9.66187C24.2225 9.59792 24.3229 9.50255 24.3928 9.38597C24.4628 9.26938 24.4998 9.13597 24.4998 9C24.4998 8.86402 24.4628 8.73061 24.3928 8.61403C24.3229 8.49744 24.2225 8.40207 24.1025 8.33812ZM12.5 18.75C8.44345 18.75 6.05751 16.7681 5.00001 15.5897V11.85L12.1475 15.6619C12.256 15.7197 12.3771 15.7499 12.5 15.7499C12.6229 15.7499 12.744 15.7197 12.8525 15.6619L17 13.4503V17.7947C15.8188 18.3459 14.33 18.75 12.5 18.75ZM20 15.5859C19.5504 16.0848 19.0474 16.5328 18.5 16.9219V12.6497L20 11.85V15.5859ZM18.125 11.1506L18.1044 11.1384L12.8544 8.33812C12.6792 8.24866 12.4759 8.23158 12.2883 8.29056C12.1007 8.34955 11.9437 8.47989 11.8513 8.65349C11.7588 8.82709 11.7382 9.03006 11.794 9.21868C11.8498 9.40729 11.9774 9.56645 12.1494 9.66187L16.5313 12L12.5 14.1497L2.84376 9L12.5 3.85031L22.1563 9L18.125 11.1506Z" fill="white"/>
</g>
<defs>
<clipPath id="clip0_533_800">
<rect width="24" height="24" fill="white" transform="translate(0.5)"/>
</clipPath>
</defs>
</svg>
