<svg width="31" height="31" viewBox="0 0 31 31" fill="none" xmlns="http://www.w3.org/2000/svg">
<path fill-rule="evenodd" clip-rule="evenodd" d="M20.9512 4.08154H10.9512C7.4994 4.08154 4.70117 6.87977 4.70117 10.3315V20.3315C4.70117 23.7833 7.4994 26.5815 10.9512 26.5815H20.9512C24.4029 26.5815 27.2012 23.7833 27.2012 20.3315V10.3315C27.2012 6.87977 24.4029 4.08154 20.9512 4.08154ZM25.0137 20.3315C25.0068 22.5723 23.1919 24.3872 20.9512 24.394H10.9512C8.71036 24.3872 6.89553 22.5723 6.88867 20.3315V10.3315C6.89553 8.09073 8.71036 6.27591 10.9512 6.26904H20.9512C23.1919 6.27591 25.0068 8.09073 25.0137 10.3315V20.3315ZM21.8887 10.644C22.579 10.644 23.1387 10.0844 23.1387 9.39404C23.1387 8.70369 22.579 8.14404 21.8887 8.14404C21.1983 8.14404 20.6387 8.70369 20.6387 9.39404C20.6387 10.0844 21.1983 10.644 21.8887 10.644ZM15.9512 9.70654C12.8446 9.70654 10.3262 12.2249 10.3262 15.3315C10.3262 18.4382 12.8446 20.9565 15.9512 20.9565C19.0578 20.9565 21.5762 18.4382 21.5762 15.3315C21.5795 13.8387 20.9879 12.406 19.9323 11.3504C18.8767 10.2948 17.444 9.70322 15.9512 9.70654ZM12.5137 15.3315C12.5137 17.23 14.0527 18.769 15.9512 18.769C17.8497 18.769 19.3887 17.23 19.3887 15.3315C19.3887 13.433 17.8497 11.894 15.9512 11.894C14.0527 11.894 12.5137 13.433 12.5137 15.3315Z" fill="#1E2763"/>
</svg>
