<svg width="31" height="31" viewBox="0 0 31 31" fill="none" xmlns="http://www.w3.org/2000/svg">
<path fill-rule="evenodd" clip-rule="evenodd" d="M6.57617 4.08154C5.54063 4.08154 4.70117 4.92101 4.70117 5.95654V24.7065C4.70117 25.742 5.54063 26.5815 6.57617 26.5815H25.3262C26.3617 26.5815 27.2012 25.742 27.2012 24.7065V5.95654C27.2012 4.92101 26.3617 4.08154 25.3262 4.08154H6.57617ZM11.6021 9.08494C11.6092 10.2803 10.7144 11.0168 9.65271 11.0115C8.65251 11.0062 7.78063 10.2099 7.78591 9.08671C7.79118 8.03026 8.62615 7.18123 9.71072 7.20584C10.8111 7.23046 11.6092 8.03729 11.6021 9.08494ZM16.3008 12.5337H13.1508H13.149V23.2335H16.4783V22.9839C16.4783 22.509 16.4779 22.034 16.4775 21.5589C16.4765 20.2917 16.4754 19.023 16.4819 17.7562C16.4837 17.4485 16.4977 17.1287 16.5768 16.835C16.8738 15.7382 17.86 15.0298 18.9604 15.2039C19.667 15.3145 20.1345 15.7242 20.3314 16.3904C20.4528 16.8069 20.5073 17.2552 20.5125 17.6894C20.5268 18.9989 20.5248 20.3084 20.5228 21.618C20.522 22.0803 20.5213 22.5428 20.5213 23.005V23.2318H23.8612V22.9752C23.8612 22.4102 23.8609 21.8453 23.8605 21.2804C23.8599 19.8685 23.8592 18.4567 23.8629 17.0443C23.8647 16.4062 23.7962 15.7769 23.6397 15.1599C23.4059 14.2423 22.9225 13.4829 22.1368 12.9345C21.5795 12.5443 20.9678 12.2929 20.284 12.2648C20.2062 12.2616 20.1277 12.2573 20.0488 12.2531C19.6992 12.2342 19.3438 12.215 19.0095 12.2824C18.0533 12.474 17.2132 12.9117 16.5785 13.6833C16.5048 13.7718 16.4327 13.8617 16.325 13.9958L16.3008 14.0262V12.5337ZM8.05322 23.237H11.3667V12.5407H8.05322V23.237Z" fill="#1E2763"/>
</svg>
