<svg width="22" height="21" viewBox="0 0 22 21" fill="none" xmlns="http://www.w3.org/2000/svg">
<path d="M10.4756 1.17668C10.8365 0.312198 12.0658 0.3122 12.4268 1.17669L14.557 6.27903C14.7092 6.64348 15.0533 6.89249 15.4482 6.92403L20.9775 7.36564C21.9144 7.44047 22.2942 8.60516 21.5805 9.21426L17.3677 12.8092C17.0668 13.0661 16.9354 13.469 17.0273 13.8529L18.3144 19.2282C18.5324 20.1389 17.5379 20.8588 16.7359 20.3708L12.002 17.4902C11.6638 17.2844 11.2386 17.2844 10.9004 17.4902L6.16652 20.3708C5.36445 20.8588 4.36993 20.1389 4.588 19.2282L5.87508 13.8529C5.96701 13.469 5.8356 13.0661 5.5347 12.8092L1.32189 9.21426C0.608117 8.60516 0.987993 7.44047 1.92483 7.36564L7.45421 6.92403C7.84916 6.89249 8.1932 6.64348 8.34536 6.27903L10.4756 1.17668Z" fill="#4172F0"/>
</svg>
