<svg width="28" height="40" viewBox="0 0 28 40" fill="none" xmlns="http://www.w3.org/2000/svg">
<path d="M25.6095 0.00739118C25.9535 0.00558579 26.2841 0.14049 26.5286 0.382427C26.7731 0.624364 26.9114 0.953514 26.9132 1.29747L27.1038 37.6103C27.105 37.8264 27.0522 38.0393 26.9501 38.2298C26.8481 38.4202 26.7 38.5822 26.5195 38.7009C26.339 38.8196 26.1316 38.8913 25.9163 38.9095C25.701 38.9278 25.4846 38.8919 25.2866 38.8052L14.1152 33.9096L2.99577 38.9222C2.79876 39.011 2.5827 39.0491 2.36722 39.0331C2.15173 39.0172 1.94365 38.9476 1.76187 38.8308C1.5801 38.714 1.43039 38.5536 1.32635 38.3642C1.22231 38.1749 1.16723 37.9625 1.16612 37.7464L0.982327 2.7305L1.32637 0.00731074L25.6095 0.00739118Z" fill="#FFC619"/>
</svg>
