<svg width="19" height="16" viewBox="0 0 19 16" fill="none" xmlns="http://www.w3.org/2000/svg">
<path d="M16.6748 0.825562H2.32629C1.33085 0.825562 0.541683 1.6237 0.541683 2.61913L0.532715 13.3806C0.532715 14.376 1.33085 15.1741 2.32629 15.1741H16.6748C17.6703 15.1741 18.4684 14.376 18.4684 13.3806V2.61913C18.4684 1.6237 17.6703 0.825562 16.6748 0.825562ZM15.7781 13.3806H3.22307C2.72984 13.3806 2.32629 12.977 2.32629 12.4838V7.99984H16.6748V12.4838C16.6748 12.977 16.2713 13.3806 15.7781 13.3806ZM16.6748 4.4127H2.32629V3.51592C2.32629 3.02269 2.72984 2.61913 3.22307 2.61913H15.7781C16.2713 2.61913 16.6748 3.02269 16.6748 3.51592V4.4127Z" fill="white"/>
</svg>
