<svg width="30" height="30" viewBox="0 0 30 30" fill="none" xmlns="http://www.w3.org/2000/svg">
<g clip-path="url(#clip0_1311_22348)">
<rect x="0.504395" y="0.107422" width="29.1892" height="29.1892" rx="14.5946" transform="rotate(-0.173721 0.504395 0.107422)" fill="url(#paint0_linear_1311_22348)"/>
<path d="M27.0188 11.6928C28.5295 5.8752 29.2609 4.842 32.7968 12.3302L27.0188 11.6928Z" fill="#D4E1FF"/>
<path d="M12.5857 24.156L12.447 24.2762C14.5568 26.2538 17.7689 31.3419 22.6305 31.0701C22.6305 31.0701 26.5825 38.2396 30.8085 37.4337C35.0344 36.6269 38.1519 30.6654 38.1519 30.6654C39.2907 28.6077 40.0947 26.3818 40.5338 24.0713C40.4727 23.5363 40.2729 23.1198 39.8953 22.863C36.8718 20.8689 14.7842 22.543 12.5857 24.156Z" fill="#1C1B29"/>
<path d="M18.9527 9.41571L23.3823 10.5924C24.6977 10.0254 26.1164 9.73757 27.5487 9.74724C34.2971 9.72677 37.9064 15.1914 37.9268 21.9164C37.9472 28.6423 34.3711 34.1287 27.6227 34.1492C20.8735 34.1696 17.2843 28.705 17.2639 21.9791C17.2568 20.9887 17.3334 19.9995 17.4928 19.0221C17.9422 16.4412 17.8128 13.7914 17.1117 11.2663C17.0435 11.011 17.0434 10.7423 17.1115 10.4871C17.1797 10.2318 17.3136 9.99884 17.5 9.81153C17.6863 9.62421 17.9185 9.48907 18.1735 9.41962C18.4284 9.35016 18.6971 9.34881 18.9527 9.41571Z" fill="#B3CAFF"/>
<path d="M37.6978 24.8343C34.4269 26.2922 31.0481 24.7741 27.7872 22.9197C24.2276 20.887 21.929 15.7157 20.9516 14.0721C19.9743 12.4278 18.5832 12.1154 17.6237 9.71801C17.397 9.89836 17.228 10.1409 17.1372 10.416C17.0463 10.691 17.0378 10.9866 17.1125 11.2664C17.8131 13.7917 17.943 16.4413 17.4928 19.023C17.3335 20.0002 17.2569 20.9892 17.2639 21.9792C17.2843 28.7051 20.8936 34.1697 27.6227 34.1493C33.3594 34.1319 36.8011 30.1534 37.6978 24.8335L37.6978 24.8343Z" fill="#8DAEF7"/>
<path d="M37.0965 22.8304C37.1124 28.068 34.009 32.3235 30.1776 32.3351C26.347 32.3468 23.2372 28.1101 23.2213 22.8724C23.1951 14.2228 28.5956 21.2892 32.427 21.2776C36.2576 21.2659 37.1728 15.4107 37.0965 22.8304Z" fill="#FCFDFF"/>
<path d="M30.279 27.902C30.651 27.8695 30.9081 27.348 30.8557 26.7367C30.8024 26.1253 30.4578 25.6563 30.0867 25.6879C29.7155 25.7212 29.4575 26.2427 29.5108 26.8532C29.5641 27.4646 29.9079 27.9344 30.279 27.902ZM34.8362 26.8749C34.9452 26.271 34.7363 25.7277 34.3688 25.6621C34.0022 25.5957 33.6162 26.0316 33.5071 26.6354C33.3989 27.2384 33.6079 27.7818 33.9745 27.8482C34.3411 27.9146 34.7271 27.4787 34.8362 26.8749Z" fill="#1C1B29"/>
<path d="M50.355 87.903C47.5378 88.507 39.0776 80.4977 39.0776 80.4977C41.4221 87.7911 41.8257 89.9724 42.2283 91.8555C42.631 93.7395 42.3935 94.1171 42.2392 95.4467C42.0841 96.7763 42.084 96.7369 42.883 98.4011C43.682 100.064 44.2022 101.234 44.3631 102.087C44.4241 102.582 44.4055 103.084 44.3081 103.574L8.83706 103.682C8.83706 103.682 8.65546 102.889 9.40333 100.684C10.1512 98.4802 11.8725 96.6501 12.8206 95.2578C13.7694 93.8664 13.7103 94.0056 13.4506 93.431C12.2512 90.6173 14.1784 91.227 14.9796 86.9986C15.78 82.7701 15.9777 62.6127 17.7583 54.3746C19.5398 46.1358 22.2933 44.1828 22.4712 37.3776C19.1068 34.2539 10.7651 26.1245 12.447 24.2744C14.3577 26.0541 20.0769 26.9103 24.7415 26.8567C25.1507 26.8496 25.5517 26.9717 25.8874 27.2058C26.2231 27.4398 26.4765 27.7737 26.6114 28.1601C27.4126 30.5579 29.4319 35.2937 32.5864 34.6686C35.741 34.0443 38.0655 28.4026 38.715 26.3571C38.8519 25.9106 39.1377 25.5246 39.5249 25.2634C39.9473 24.9477 40.2923 24.5399 40.5338 24.0711C40.9828 27.9775 34.5229 38.3528 34.5229 38.3528C34.5229 38.3528 36.1735 52.3942 39.4034 57.0066C42.6325 61.6198 51.6646 61.5924 51.8957 65.9961C52.1276 70.399 53.152 87.2991 50.355 87.903Z" fill="#BD4070"/>
<path d="M22.9007 28.529C20.5579 28.3971 17.4011 28.0097 12.3318 25.5059C13.154 28.4589 19.6248 34.7088 22.4711 37.3785C22.4347 39.4892 22.059 41.5804 21.3585 43.5718C23.9296 47.1945 27.0194 44.8243 27.6064 55.0199C27.8575 59.364 31.0707 65.1272 34.4245 71.3664C37.7783 77.6056 38.1999 66.1173 38.0437 60.4638C37.9548 57.3888 37.3285 53.5817 36.6618 49.9532C35.2365 44.4619 34.5229 38.3536 34.5229 38.3536C34.5229 38.3536 39.0467 31.0788 40.2628 26.4329C39.9532 26.6267 39.7114 26.9119 39.571 27.2482C38.348 30.028 36.978 32.7408 35.4669 35.3751C33.9063 38.0188 30.9926 39.3367 27.6219 34.1494C24.252 28.9613 25.422 28.6805 22.9007 28.529Z" fill="#A12C66"/>
<path d="M24.3403 18.8038C27.8393 20.4791 29.0568 22.6185 31.8554 22.5305C34.654 22.4424 35.7411 21.0899 36.8671 19.2817C36.4076 18.2907 35.1663 21.2701 32.4269 21.2784C29.6876 21.2867 26.1038 17.6276 24.3403 18.8038Z" fill="#8DAEF7"/>
</g>
<defs>
<linearGradient id="paint0_linear_1311_22348" x1="15.099" y1="29.429" x2="15.099" y2="8.52068" gradientUnits="userSpaceOnUse">
<stop stop-color="#7196FF"/>
<stop offset="1" stop-color="#2A5EE8"/>
</linearGradient>
<clipPath id="clip0_1311_22348">
<rect x="0.504395" y="0.107422" width="29.1892" height="29.1892" rx="14.5946" transform="rotate(-0.173721 0.504395 0.107422)" fill="white"/>
</clipPath>
</defs>
</svg>
