<svg width="30" height="30" viewBox="0 0 30 30" fill="none" xmlns="http://www.w3.org/2000/svg">
<g clip-path="url(#clip0_1311_22346)">
<rect x="0.340576" y="0.494141" width="29.1892" height="29.1892" rx="14.5946" transform="rotate(-0.173721 0.340576 0.494141)" fill="#7196FF"/>
<path d="M11.3167 25.4111L10.6775 26.0489L15.3477 30.6517L15.9871 30.0138L11.3167 25.4111Z" fill="#2E3338"/>
<path d="M14.228 25.4092L13.5886 26.0469L18.2588 30.6496L18.8982 30.0119L14.228 25.4092Z" fill="#2E3338"/>
<path d="M19.4708 24.5948C20.673 23.3899 21.4144 21.8076 21.5676 20.1198C21.7208 18.4318 21.2762 16.7438 20.3104 15.3457L17.2806 10.9564L13.7121 10.9672L13.7291 16.5776C13.7306 17.065 13.5367 17.533 13.1902 17.8787C12.8437 18.2243 12.3729 18.4193 11.8813 18.4208L6.14416 18.4382L6.14802 19.7089C6.15368 21.5772 6.90628 23.3668 8.24076 24.6857C9.57523 26.0046 11.3828 26.745 13.267 26.7444L14.3119 26.7412C16.2478 26.7192 18.0987 25.9492 19.4708 24.5948Z" fill="#FFD836"/>
<path d="M17.2744 8.90422C18.2208 8.90135 19.1296 9.27138 19.8008 9.93291C20.472 10.5944 20.8507 11.4933 20.8536 12.4317L20.8564 13.3505L13.7193 13.3721L13.7165 12.4338C13.7189 11.4987 14.0945 10.6026 14.7612 9.94127C15.4278 9.2799 16.3314 8.90706 17.2744 8.90422Z" fill="#FFD836"/>
<path d="M21.8973 12.037C22.0696 12.2049 22.2058 12.4056 22.2979 12.627C22.3901 12.8484 22.4363 13.086 22.4335 13.3255L19.0227 13.3359C18.896 13.3338 18.7725 13.295 18.6678 13.2242C18.5629 13.1535 18.4812 13.0539 18.4327 12.9378C18.3842 12.8216 18.3709 12.6939 18.3946 12.5704C18.4183 12.4469 18.4778 12.333 18.5659 12.2426L19.254 11.5563L19.251 10.5788C19.2505 10.4525 19.2993 10.331 19.3872 10.2396C19.4752 10.1482 19.5954 10.0941 19.7226 10.0887C19.8526 10.0953 19.9771 10.1428 20.0779 10.2244L21.8973 12.037Z" fill="#FF9A15"/>
<path d="M17.2744 8.90362L16.2294 8.90678C14.9433 8.90908 13.7085 8.40684 12.7947 7.50969L12.2803 6.94434L12.2813 7.29622C12.2848 8.43683 12.7451 9.52933 13.561 10.3334C14.3768 11.1375 15.4814 11.5872 16.6318 11.5837L17.2627 11.5818L17.2744 8.90362Z" fill="#FFD836"/>
<path d="M12.2122 10.5215L15.0708 10.5128L15.0794 13.3474L12.2122 10.5215Z" fill="#FFD836"/>
<path d="M7.80857 21.1702C8.34512 22.2978 9.29916 23.177 10.4725 23.6252C11.6459 24.0734 12.9483 24.0563 14.1092 23.5771C15.2701 23.098 16.2003 22.1938 16.7064 21.0524C17.2125 19.911 17.2557 18.6203 16.827 17.4482L7.80857 21.1702Z" fill="#FF9A15"/>
<path d="M2.98022 15.3193L5.21511 17.6193C5.50844 17.9047 5.74194 18.2449 5.90209 18.6201C6.06237 18.9955 6.14606 19.3984 6.14837 19.8059L7.74533 19.8011L7.74195 18.6869C7.73818 18.0642 7.52636 17.4604 7.13958 16.9699C6.75281 16.4794 6.21296 16.1299 5.60443 15.9761L2.98022 15.3193Z" fill="#FFD836"/>
<path d="M7.1912 19.1383L7.01429 19.3147C6.94172 19.3842 6.85011 19.4309 6.75089 19.4489C6.65166 19.467 6.54925 19.4557 6.45658 19.4163C6.36377 19.3769 6.28487 19.3112 6.22959 19.2276C6.17432 19.144 6.1451 19.046 6.14574 18.9459L6.13015 13.8047L7.17816 14.8376C7.74827 15.4098 8.06904 16.1809 8.07148 16.9852C8.07392 17.7896 7.75783 18.5627 7.1912 19.1383Z" fill="#FFD836"/>
<path d="M17.4992 11.5814C17.7497 11.5807 17.9521 11.3788 17.9513 11.1305C17.9506 10.8821 17.7469 10.6815 17.4965 10.6822C17.246 10.683 17.0436 10.8849 17.0443 11.1332C17.0451 11.3815 17.2487 11.5822 17.4992 11.5814Z" fill="#202225"/>
</g>
<defs>
<clipPath id="clip0_1311_22346">
<rect x="0.340576" y="0.494141" width="29.1892" height="29.1892" rx="14.5946" transform="rotate(-0.173721 0.340576 0.494141)" fill="white"/>
</clipPath>
</defs>
</svg>
