<svg width="30" height="31" viewBox="0 0 30 31" fill="none" xmlns="http://www.w3.org/2000/svg">
<g clip-path="url(#clip0_1311_22347)">
<rect x="0.42334" y="1.04395" width="29.1892" height="29.1892" rx="14.5946" transform="rotate(-0.173721 0.42334 1.04395)" fill="#FF78B9"/>
<path d="M24.2228 35.2799C25.2084 33.1971 22.5384 29.8671 18.2588 27.8417C13.9794 25.8164 9.71114 25.8629 8.72548 27.9458C7.73983 30.0284 10.4099 33.3586 14.6895 35.384C18.9688 37.4091 23.2371 37.3625 24.2228 35.2799Z" fill="black"/>
<path d="M24.7417 23.7622C23.4731 22.9772 23.4109 22.9982 22.7013 21.7342C21.9918 20.4702 21.0974 19.8502 20.0591 19.708L21.3742 29.0238C24.075 29.8044 25.7314 28.4294 26.1009 27.0791C26.4704 25.7288 26.031 24.547 24.7417 23.7622Z" fill="#3442D9"/>
<path d="M23.4794 24.9903C23.1219 23.4761 22.1825 21.7146 21.0784 20.3896C20.6828 19.9109 20.4015 19.3482 20.2558 18.7443C20.1101 18.1406 20.1038 17.5115 20.2375 16.905L20.6879 14.8279C21.0046 13.3863 20.8288 11.8802 20.189 10.5502C19.549 9.22011 18.4817 8.14294 17.1577 7.4907C16.398 7.11948 15.5716 6.90325 14.7273 6.85461C13.1384 6.74306 11.5687 7.25502 10.3511 8.28177C9.13347 9.30855 8.36388 10.7693 8.20553 12.3542C8.17189 12.6227 8.1588 12.8933 8.16647 13.1638L8.16918 14.0564L8.22202 17.7924C8.27215 19.4709 7.92143 21.1368 7.19891 22.6526C6.89893 23.254 6.67108 23.8888 6.51967 24.5436L16.7024 35.3062C21.5362 34.4821 24.5526 29.8026 23.4794 24.9903Z" fill="#3442D9"/>
<path d="M16.723 35.3068C21.5361 34.4827 24.5524 29.8032 23.4792 24.9909C23.1427 23.5597 22.2867 21.9018 21.2657 20.6179" stroke="black" stroke-miterlimit="10" stroke-linecap="round"/>
<path d="M20.2421 25.3115C21.1921 23.7311 21.5664 23.9376 23.2698 24.3891C24.6408 24.7378 26.2268 27.5351 24.1347 28.9529C22.0425 30.3708 17.7641 29.5327 20.2421 25.3115Z" fill="#3442D9"/>
<path d="M15.4961 20.6741C15.687 20.5271 15.7169 20.2462 15.5631 20.0462C15.4093 19.8463 15.13 19.8034 14.9393 19.9501C14.7485 20.097 14.7185 20.3779 14.8723 20.5778C15.026 20.7778 15.3054 20.8208 15.4961 20.6741Z" fill="black"/>
<path d="M18.1113 20.8282C18.302 20.6815 18.3321 20.4004 18.1783 20.2005C18.0245 20.0007 17.7452 19.9576 17.5543 20.1045C17.3635 20.2512 17.3334 20.5323 17.4872 20.7322C17.641 20.932 17.9203 20.9751 18.1113 20.8282Z" fill="black"/>
<path d="M17.8406 20.5039C20.0671 22.3238 19.1577 23.6342 20.951 26.3272" stroke="white" stroke-miterlimit="10" stroke-linecap="round"/>
<path d="M15.3416 24.6001C16.7086 23.6412 17.1229 23.3701 17.6419 23.3892L18.9915 23.5097L18.6552 28.9905L15.2301 28.8971L15.3416 24.6001Z" fill="#FFC619"/>
<path d="M21.9792 23.189C22.005 23.1164 22.0132 23.0388 22.0039 22.9624C21.9945 22.8861 21.9675 22.8129 21.9252 22.7487C21.8826 22.6845 21.826 22.6309 21.7595 22.5923C21.6927 22.5536 21.6182 22.531 21.5413 22.5261L19.2571 22.2009C19.0914 22.1838 18.9246 22.2241 18.7852 22.3152C18.6456 22.4064 18.5416 22.5426 18.4906 22.7014L17.2182 27.4793C17.1927 27.552 17.1842 27.6295 17.1935 27.7058C17.2029 27.7822 17.2299 27.8554 17.2722 27.9196C17.3148 27.9838 17.3714 28.0374 17.4381 28.076C17.5047 28.1146 17.5793 28.1372 17.6561 28.1422L19.9403 28.4674C20.1062 28.4845 20.2728 28.4442 20.4124 28.353C20.5518 28.2619 20.6558 28.1256 20.7068 27.9669L21.9792 23.189Z" fill="black"/>
<path d="M21.8741 22.7125L22.1241 23.0024L21.4393 23.0667L21.8741 22.7125Z" fill="black"/>
<path d="M23.0045 25.8635C22.7124 25.387 22.4408 24.7859 21.6516 24.6637L21.5509 25.6604L23.0045 25.8635Z" fill="#FFC619"/>
<path d="M22.2086 23.459C22.2302 23.3864 22.2356 23.31 22.2243 23.2351C22.2131 23.1603 22.1857 23.0887 22.144 23.0255C22.1023 22.9624 22.0473 22.9092 21.9829 22.8695C21.9184 22.8299 21.8459 22.8048 21.7707 22.7961L19.4657 22.4709C19.3007 22.4575 19.1356 22.4996 18.997 22.5901C18.8582 22.6808 18.7533 22.8148 18.6992 22.9714L17.4268 27.7494C17.4052 27.8219 17.3998 27.8983 17.4111 27.9732C17.4223 28.0481 17.4497 28.1196 17.4914 28.1828C17.5331 28.246 17.5881 28.2993 17.6525 28.3388C17.7172 28.3785 17.7895 28.4036 17.8647 28.4123L20.1696 28.7166C20.3312 28.7427 20.4967 28.7079 20.6343 28.6195C20.7718 28.5309 20.8721 28.3948 20.9154 28.237L22.2086 23.459Z" fill="white"/>
<path d="M21.5085 25.3493L22.4429 25.4917C22.6323 25.5121 22.8059 25.6061 22.9267 25.7531C23.0476 25.9003 23.1057 26.089 23.0888 26.2786C23.0843 26.3772 23.0593 26.4738 23.0153 26.5621C22.9712 26.6502 22.9092 26.7285 22.8332 26.7912C22.757 26.8541 22.6687 26.9002 22.5735 26.9267C22.4785 26.9533 22.3789 26.9597 22.2813 26.9452L21.596 26.8435C21.3832 26.8136 21.1861 26.7142 21.0353 26.5608C20.8848 26.4073 20.7891 26.2085 20.7632 25.995C20.7577 25.9 20.7742 25.8048 20.8113 25.7171C20.8484 25.6294 20.9052 25.5514 20.9771 25.4889C21.0491 25.4266 21.1345 25.3816 21.2266 25.3574C21.3187 25.3333 21.4152 25.3305 21.5085 25.3493Z" fill="#FFC619"/>
<path d="M21.2014 26.7407L21.8451 26.8425C21.9529 26.8559 22.0564 26.8923 22.1485 26.9495C22.2406 27.0067 22.3191 27.0835 22.3786 27.174C22.4382 27.2648 22.4773 27.3674 22.4932 27.4747C22.5091 27.5819 22.5013 27.6913 22.4707 27.7954C22.427 27.9629 22.3216 28.1076 22.1755 28.2004C22.0295 28.2933 21.8538 28.3274 21.6835 28.296L21.2889 28.2349C21.0736 28.2059 20.8736 28.1073 20.7195 27.9541C20.5655 27.801 20.4657 27.6016 20.4353 27.3865C20.429 27.2891 20.4457 27.1919 20.4839 27.1021C20.5222 27.0126 20.5809 26.9331 20.6554 26.8702C20.73 26.8075 20.8181 26.763 20.913 26.7405C21.0078 26.718 21.1066 26.7181 21.2014 26.7407Z" fill="#FFC619"/>
<path d="M19.1951 29.1134L16.9525 28.8088L17.0535 27.8952L19.2962 28.2205L19.1951 29.1134Z" fill="#FFC619"/>
<path d="M19.7237 25.4797L18.3116 25.2764C18.2444 25.2675 18.1812 25.2393 18.1294 25.1954C18.0777 25.1514 18.0398 25.0934 18.0203 25.0282L17.8946 24.655L17.7885 23.8873L17.0287 26.588L19.3129 26.9132C19.5256 26.941 19.7413 26.8963 19.9255 26.7866C20.1097 26.6769 20.2516 26.5085 20.3282 26.3082C20.3526 26.2132 20.3556 26.114 20.3373 26.0178C20.3187 25.9215 20.2792 25.8305 20.2215 25.7514C20.1637 25.6721 20.089 25.6067 20.0031 25.5598C19.9171 25.5128 19.8217 25.4855 19.7237 25.4797Z" fill="#FFC619"/>
<path d="M19.2715 26.8924L17.0288 26.5879L17.1371 28.0821L18.8607 28.3259C19.071 28.3566 19.2853 28.3128 19.4668 28.2024C19.6483 28.0921 19.7856 27.9217 19.8552 27.7209C19.8833 27.6275 19.8899 27.5288 19.8744 27.4324C19.8588 27.3359 19.8213 27.2445 19.7653 27.1645C19.709 27.0848 19.6353 27.0188 19.5496 26.9715C19.4642 26.9244 19.369 26.8973 19.2715 26.8924Z" fill="#FFC619"/>
<path d="M35.1988 35.998C35.2542 33.7561 33.4058 33.4088 32.1373 32.6239C30.8687 31.839 29.3692 30.183 27.8091 29.0669C26.2489 27.9507 24.8998 27.9756 22.2662 28.7931L25.2936 34.6373C26.9983 35.504 27.3748 36.4576 28.292 37.7418C29.2092 39.0259 30.4354 39.5204 31.6593 39.2883C32.306 40.345 32.4313 40.5937 33.3643 40.2587C34.2974 39.9238 35.8312 39.2134 36.2426 37.9875C36.6541 36.7616 36.0515 36.5559 35.1988 35.998Z" fill="#66BCFF"/>
<path d="M25.1586 31.1917C24.8823 32.0837 24.7043 33.0029 24.6272 33.9332" stroke="black" stroke-width="2" stroke-miterlimit="10" stroke-linecap="round"/>
<path d="M26.416 41.9817C24.5323 43.6895 22.9326 43.2169 22.1851 43.1362C21.4376 43.0554 21.519 42.5155 21.4553 42.059C21.3917 41.6026 21.3481 40.9177 21.3481 40.9177C19.4588 40.7989 19.2266 39.5127 19.1816 38.3712C19.1367 37.2297 18.8456 37.0645 18.6978 36.2555C16.4191 35.8533 14.2639 34.932 12.3987 33.5625C10.5334 32.1932 9.00885 30.4125 7.94257 28.359L9.91012 26.9208L14.3192 29.7719C17.2841 28.6628 18.9222 28.0974 20.5201 27.9887C22.1181 27.8801 23.6974 28.4773 24.223 30.6966C24.7487 32.916 24.813 33.6008 25.2936 34.658C25.419 34.9274 25.6277 35.3004 25.8365 35.6942C26.4212 36.8755 27.0282 38.5342 25.8506 40.3436C25.9965 40.9034 26.1856 41.4513 26.416 41.9817Z" fill="#8CD9FF"/>
<path d="M11.1726 32.5417C11.1059 31.0682 11.6632 30.0286 12.6798 29.8595L10.1005 28.0822L8.23488 28.8974C8.71631 30.2244 9.94535 31.6736 11.1726 32.5417Z" fill="black"/>
<path d="M15.382 24.31C14.7785 23.7929 14.322 23.8358 13.5964 24.1494C12.8263 23.446 11.8297 23.3452 10.7929 23.7012C9.75615 24.0572 8.15934 24.5395 7.22604 24.7914C7.174 24.811 7.11735 24.8152 7.06293 24.8035C7.00851 24.7916 6.95861 24.7646 6.91906 24.7255C6.87971 24.6861 6.85237 24.6364 6.84037 24.5821C6.82817 24.5277 6.83214 24.471 6.85129 24.4189L7.52871 21.926C5.31278 23.5933 4.59706 27.1449 5.30864 29.0731C6.02022 31.0013 9.09214 30.9713 10.0661 30.4286C11.04 29.886 11.3716 29.7189 12.4931 29.9231C13.6146 30.1273 14.4868 30.2699 15.9571 29.1446L16.828 28.8514C17.1544 26.9615 16.8597 25.5924 15.382 24.31Z" fill="#3442D9"/>
<path d="M15.382 24.3094C14.7785 23.7923 14.322 23.8352 13.5964 24.1488C12.8263 23.4454 11.8297 23.3446 10.7929 23.7006C9.75615 24.0566 8.15933 24.5389 7.22604 24.7908" stroke="black" stroke-miterlimit="10" stroke-linecap="round"/>
<path d="M13.5964 24.1484C14.2179 24.6267 14.7359 25.2258 15.1197 25.9094C15.5035 26.5932 15.7449 27.3476 15.8295 28.127" stroke="black" stroke-miterlimit="10" stroke-linecap="round"/>
<path d="M19.8839 23.5069C19.8932 23.4783 19.8962 23.448 19.8926 23.4179C19.889 23.388 19.8789 23.3592 19.8629 23.3337C19.847 23.308 19.8258 23.2861 19.8006 23.2695C19.7754 23.253 19.747 23.2421 19.7171 23.2376L19.5095 23.2382C19.4518 23.2257 19.3914 23.2363 19.3412 23.2674C19.2909 23.2985 19.2547 23.3478 19.2402 23.4051L19.0554 24.0906C19.046 24.121 19.0436 24.1529 19.0485 24.1843C19.0533 24.2156 19.0652 24.2452 19.0832 24.2713C19.1013 24.2972 19.1252 24.3188 19.1529 24.3342C19.1805 24.3495 19.2115 24.3583 19.2431 24.3599L19.4506 24.3593C19.5052 24.3662 19.5604 24.3529 19.6062 24.3223C19.6518 24.2916 19.6848 24.2457 19.6992 24.1925L19.8839 23.5069Z" fill="#29CC7A"/>
<path d="M16.5508 19.5323C16.7103 19.2069 16.9462 18.9252 17.2383 18.7111C17.5305 18.4969 17.8703 18.3567 18.2284 18.3025C18.2699 18.3024 18.2905 18.2608 18.2697 18.2402C17.9968 17.2447 18.1197 16.6838 18.4703 15.9563C18.4739 15.951 18.4761 15.945 18.4769 15.9387C18.4777 15.9324 18.4771 15.926 18.4752 15.9201C18.4731 15.914 18.4698 15.9086 18.4652 15.9041C18.4608 15.8996 18.4554 15.8962 18.4494 15.8941C17.2855 15.3994 16.8471 14.5705 16.7207 13.9482C16.6998 13.9067 16.6375 13.8862 16.6168 13.9277C16.1011 14.9671 15.3955 15.0108 14.7933 14.9296C14.7518 14.9297 14.7311 14.9713 14.7519 14.992C15.3574 16.1525 14.924 16.9841 14.3239 17.5671C14.3208 17.5753 14.3191 17.584 14.3196 17.5928C14.32 17.6015 14.3223 17.6101 14.3263 17.6179C14.3303 17.6258 14.3357 17.6327 14.3425 17.6382C14.3492 17.6437 14.3571 17.6478 14.3656 17.65C15.5286 17.8541 16.1536 18.6202 16.4469 19.5118C16.4678 19.5533 16.5302 19.5738 16.5508 19.5323Z" fill="#FFC619"/>
<path d="M19.2715 26.892L18.0879 26.7295" stroke="black" stroke-miterlimit="10" stroke-linecap="round"/>
<path d="M21.4299 26.8232L22.0945 26.925" stroke="black" stroke-miterlimit="10" stroke-linecap="round"/>
<path d="M16.679 13.9061C17.1944 12.7421 17.1504 11.9327 17.0037 11.4765" stroke="black" stroke-miterlimit="10" stroke-linecap="round"/>
<path d="M18.3456 15.9359C18.6695 15.9846 19.0003 15.9629 19.3151 15.8724C19.6302 15.7819 19.9219 15.6247 20.1706 15.4115" stroke="black" stroke-miterlimit="10" stroke-linecap="round"/>
<path d="M16.5508 19.532C16.5529 19.6865 16.5324 19.8405 16.4899 19.9889" stroke="black" stroke-miterlimit="10" stroke-linecap="round"/>
<path d="M14.4276 17.5874C13.6613 18.1294 12.4986 18.0499 11.6884 17.8033" stroke="black" stroke-miterlimit="10" stroke-linecap="round"/>
<path d="M14.7932 14.9292C14.5008 14.3281 13.9591 13.6448 13.4602 13.418" stroke="black" stroke-miterlimit="10" stroke-linecap="round"/>
<path d="M18.2695 18.2393C18.5377 18.3814 18.8245 18.4853 19.1215 18.548" stroke="black" stroke-miterlimit="10" stroke-linecap="round"/>
<path d="M16.0419 16.026C16.3989 17.3949 16.8553 17.3105 17.0616 16.8947C17.2679 16.4789 17.4117 15.9596 17.7439 16.0001C18.0761 16.0406 17.9949 16.622 17.603 17.4535C17.2111 18.285 16.5682 18.4737 15.9641 17.7491C15.36 17.0244 15.3371 16.3187 15.3148 15.8206C15.2925 15.3225 15.8111 15.1964 16.0419 16.026Z" fill="#C40655"/>
<path d="M15.2247 20.3456C15.4825 23.2092 14.0337 24.5836 13.5857 27.4286" stroke="white" stroke-miterlimit="10" stroke-linecap="round"/>
<path d="M18.5318 36.2762C18.1545 35.0527 17.9817 32.8115 18.9928 30.8365" stroke="black" stroke-width="2" stroke-miterlimit="10" stroke-linecap="round"/>
<path d="M8.03501 24.5598L6.50053 25.0626" stroke="black" stroke-miterlimit="10" stroke-linecap="round"/>
<path d="M23.2905 24.3271L24.3292 24.6146" stroke="black" stroke-miterlimit="10" stroke-linecap="round"/>
</g>
<defs>
<clipPath id="clip0_1311_22347">
<rect x="0.42334" y="1.04395" width="29.1892" height="29.1892" rx="14.5946" transform="rotate(-0.173721 0.42334 1.04395)" fill="white"/>
</clipPath>
</defs>
</svg>
