<svg width="31" height="30" viewBox="0 0 31 30" fill="none" xmlns="http://www.w3.org/2000/svg">
<g clip-path="url(#clip0_1311_22345)">
<rect x="0.74292" y="0.457031" width="29.1892" height="29.1892" rx="14.5946" transform="rotate(-0.173721 0.74292 0.457031)" fill="#3442D9"/>
<path d="M7.2533 11.9083C6.39372 9.088 5.93298 7.7402 7.46646 6.90527C8.99993 6.07035 13.6719 6.61662 15.8529 7.12893C18.0339 7.64124 18.3469 8.17997 16.9212 10.3222L7.2533 11.9083Z" fill="#FFF4B3"/>
<path d="M6.33387 37.2974C5.97634 28.9128 6.16276 21.9379 6.42133 18.2216C5.02786 17.3126 4.38227 16.6088 4.11123 16.2152C4.05496 16.1394 4.02604 16.0467 4.02969 15.9523C4.03314 15.858 4.06857 15.7676 4.13042 15.6962C6.32225 12.9289 8.20381 10.5154 10.1723 9.3886C12.1408 8.26176 14.8383 7.96298 19.1479 12.2258C19.1891 12.2804 19.2097 12.3479 19.2061 12.4162C19.2026 12.4847 19.175 12.5496 19.1282 12.5995C18.788 12.9393 18.4287 13.2592 18.0518 13.5576C18.9283 15.1117 20.2016 17.4741 20.2016 17.4741L21.1979 17.4711C21.8364 17.4692 22.4497 17.7209 22.9025 18.1712C23.3556 18.6213 23.6111 19.2329 23.613 19.8716C23.6396 21.8019 23.19 24.128 22.3065 27.1197C26.3016 30.3456 25.3469 37.219 25.3469 37.219L6.33387 37.2974Z" fill="#29CC7A"/>
<path d="M22.3067 27.1193C22.4299 26.683 22.5532 26.2883 22.6558 25.8728L19.5268 27.6259C19.5268 27.6259 14.5558 24.2991 6.22611 22.2487C6.09252 26.1099 6.08762 31.3406 6.334 37.2971L25.3471 37.2394C25.3471 37.2394 26.3018 30.3453 22.3067 27.1193Z" fill="#8CD9FF"/>
<path d="M23.0977 27.8851C22.8549 27.6092 22.5903 27.3532 22.3067 27.1195C22.4299 26.6832 22.5532 26.2885 22.6557 25.873L19.5268 27.6261C19.5268 27.6261 14.5558 24.2993 6.22608 22.2489C6.20678 22.7264 6.18759 23.2453 6.18916 23.7643C12.5695 26.381 16.008 30.8956 16.4217 37.2667L21.1335 37.2524C21.9527 33.5967 22.6072 30.3982 23.0977 27.8851Z" fill="#BAE8FF"/>
<path d="M8.73035 19.8131L8.81337 19.8128C8.85476 19.7712 8.89621 19.7503 8.91678 19.688L10.7049 13.8499C10.7169 13.8253 10.7237 13.7985 10.7242 13.7711C10.7247 13.7439 10.7195 13.7168 10.7084 13.6919C10.6975 13.6668 10.6811 13.6444 10.6607 13.6264C10.6401 13.6085 10.6159 13.5952 10.5896 13.5876C10.5634 13.58 10.5358 13.5783 10.5088 13.5823C10.4818 13.5865 10.4561 13.5966 10.4333 13.6118C10.4107 13.627 10.3917 13.647 10.3775 13.6705C10.3634 13.6938 10.3546 13.72 10.3517 13.7472L8.6253 19.3983C7.87107 19.0792 7.14735 18.6922 6.46309 18.2424L6.42158 18.2426C6.42195 18.3671 6.40164 18.5124 6.40201 18.637C7.12055 19.0962 7.87896 19.49 8.66808 19.8133L8.73035 19.8131Z" fill="black"/>
<path d="M16.4233 10.4072L8.99407 10.9694C17.3015 12.5217 17.6551 12.7489 16.4233 10.4072Z" fill="black"/>
<path d="M14.5826 15.8113C14.8691 15.6946 14.9191 15.1523 14.6941 14.6002C14.4691 14.0484 14.0545 13.6955 13.7678 13.8122C13.4811 13.9291 13.4313 14.4712 13.6563 15.0233C13.8811 15.5754 14.2959 15.9282 14.5826 15.8113Z" fill="black"/>
<path d="M16.7258 16.9534C17.0938 16.2532 17.0467 15.504 16.6205 15.2801C16.1943 15.056 15.5506 15.4421 15.1824 16.1421C14.8144 16.8423 14.8617 17.5915 15.2877 17.8156C15.7139 18.0396 16.3579 17.6536 16.7258 16.9534Z" stroke="white" stroke-miterlimit="10"/>
<path d="M19.7823 16.9475C20.1503 16.2475 20.1032 15.4983 19.677 15.2742C19.2508 15.0502 18.6071 15.4362 18.2391 16.1364C17.8711 16.8366 17.9182 17.5858 18.3444 17.8097C18.7706 18.0336 19.4144 17.6477 19.7823 16.9475Z" stroke="white" stroke-miterlimit="10"/>
<path d="M17.6792 15.7024C17.8703 15.6246 17.8499 15.1313 17.6335 14.6003C17.4173 14.0696 17.087 13.7024 16.8958 13.7804C16.7049 13.8582 16.7253 14.3515 16.9415 14.8824C17.1579 15.4132 17.4883 15.7804 17.6792 15.7024Z" fill="black"/>
<path d="M19.6732 21.1287C18.0706 21.1388 16.5138 20.5935 15.268 19.5853C13.9779 18.5307 14.4964 18.4045 15.3059 18.3813C16.1153 18.3581 19.9973 18.4916 21.1186 18.6543C22.24 18.817 22.4543 21.0373 19.6732 21.1287Z" fill="#912869"/>
<path d="M19.6732 21.1287C18.0706 21.1388 16.5138 20.5935 15.268 19.5853C13.9779 18.5307 14.4964 18.4045 15.3059 18.3813C16.1153 18.3581 19.9973 18.4916 21.1186 18.6543C22.24 18.817 22.4543 21.0373 19.6732 21.1287Z" fill="#611B46"/>
<path d="M19.5971 23.4532L19.5117 22.6854C20.0979 22.6369 20.6689 22.4729 21.1915 22.2029" stroke="black" stroke-linecap="round" stroke-linejoin="round"/>
<path d="M20.4408 21.022C19.3167 19.9461 17.799 19.1412 14.9974 19.3365C17.4119 21.5501 19.9223 21.1689 20.4408 21.022Z" fill="#EB459F"/>
<path d="M16.8562 16.2178L18.1224 16.2139" stroke="white" stroke-miterlimit="10"/>
<path d="M14.9473 16.4723L9.58545 14.3091C9.47303 14.2659 9.35176 14.2507 9.23224 14.2643C9.11252 14.2782 8.99807 14.3206 8.89823 14.3882C8.79859 14.4558 8.71667 14.5465 8.6597 14.6525C8.60253 14.7586 8.57196 14.8768 8.57045 14.9972C8.56839 15.1389 8.60908 15.2779 8.68728 15.3962C8.76527 15.5142 8.87722 15.6063 9.00836 15.66L9.36173 15.825" stroke="white" stroke-miterlimit="10" stroke-linecap="round"/>
<path d="M13.8181 13.7569C14.2393 13.7664 14.6597 13.7091 15.063 13.587" stroke="black" stroke-miterlimit="10" stroke-linecap="round"/>
<path d="M16.9317 13.7471C17.1972 13.7532 17.4604 13.6955 17.6991 13.5787" stroke="black" stroke-miterlimit="10" stroke-linecap="round"/>
<path d="M7.95689 11.1802C15.3667 11.0539 17.8757 10.216 19.9906 9.44162C22.1054 8.6672 21.8961 8.06588 20.2772 8.13306C18.6584 8.20024 13.1228 10.3342 7.95689 11.1802Z" fill="#FFF4B3"/>
<path d="M7.95684 11.1799L10.4885 10.9647L16.5666 9.74234L15.0468 8.25245L7.80273 8.27441L7.95684 11.1799Z" fill="#FFF4B3"/>
<path d="M20.2472 18.8023L18.7939 18.7236C18.9626 19.5949 19.3792 20.0503 19.7316 19.9039C20.084 19.7576 20.2062 18.9892 20.2472 18.8023Z" fill="white"/>
<path d="M15.7632 18.6289C15.953 19.6247 16.3282 20.1424 16.6806 19.9753C17.0329 19.8082 17.1134 18.9777 17.1747 18.6454L15.7632 18.6289Z" fill="white"/>
<path d="M17.4148 8.76449C14.2182 9.6313 10.9776 10.3271 7.70691 10.8489" stroke="#FFC619" stroke-width="2" stroke-miterlimit="10" stroke-linecap="round"/>
</g>
<defs>
<clipPath id="clip0_1311_22345">
<rect x="0.74292" y="0.457031" width="29.1892" height="29.1892" rx="14.5946" transform="rotate(-0.173721 0.74292 0.457031)" fill="white"/>
</clipPath>
</defs>
</svg>
