<svg width="30" height="30" viewBox="0 0 30 30" fill="none" xmlns="http://www.w3.org/2000/svg">
<g clip-path="url(#clip0_1311_22344)">
<rect x="0.310303" y="0.40918" width="29.1892" height="29.1892" rx="14.5946" transform="rotate(-0.173721 0.310303 0.40918)" fill="#FFE75C"/>
<path d="M22.8046 30.0131C22.9098 30.4346 22.9178 30.8746 22.8278 31.2996C22.7379 31.7248 22.5523 32.1236 22.2854 32.4665C22.0185 32.8092 21.677 33.0869 21.287 33.2782C20.8969 33.4695 20.4686 33.5696 20.0339 33.571L14.0975 33.589L11.3209 35.1541L11.3206 35.0711C10.0545 35.075 9.32692 34.662 9.87325 30.0108C9.62021 28.7039 8.44223 23.5598 7.78713 19.7218C7.19531 16.2157 8.49907 14.9248 12.1046 12.8797C13.6267 8.30855 17.6126 8.5663 18.3889 11.3039C19.1652 14.0414 21.7328 25.6782 22.8046 30.0131Z" fill="#66BCFF"/>
<path d="M22.8044 30.0134C22.258 27.7733 21.2906 23.6249 20.3863 19.7461L15.7357 19.4073L12.1527 21.9505L10.0854 24.7382L9.0312 26.1736C9.41023 27.9576 9.72578 29.4096 9.8522 30.0319C9.30587 34.6831 10.0336 35.0961 11.2998 35.0922L14.9692 33.5243L23.4776 32.8966C23.2672 31.9632 23.0357 30.9883 22.8044 30.0134Z" fill="#EB459F"/>
<path d="M13.2846 27.7059C13.5417 26.1566 13.402 24.8427 12.9721 24.7714C12.5424 24.7001 11.9856 25.8982 11.7283 27.4476C11.4711 28.9969 11.611 30.3106 12.0407 30.3819C12.4704 30.4532 13.0274 29.2551 13.2846 27.7059Z" fill="black"/>
<path d="M10.5601 23.8648C10.7666 23.4905 10.994 23.1162 11.2213 22.7834C13.5565 19.393 15.7538 18.473 17.8709 18.4666L20.507 18.4586C20.5465 18.4595 20.5849 18.4698 20.6196 18.4883C20.6541 18.5069 20.6839 18.5336 20.7062 18.5659C20.7285 18.5982 20.743 18.6353 20.7483 18.6743C20.7536 18.7133 20.7495 18.753 20.7366 18.79L20.3864 19.7459C16.3389 19.7581 14.9063 19.6379 11.5544 23.1768L10.0856 24.738L10.5601 23.8648Z" fill="#D11583"/>
<path d="M11.5547 23.3013C10.1648 23.5546 9.0669 24.2844 8.4481 25.5732C8.27234 25.9307 8.01798 26.2437 7.70363 26.4887L3.97567 29.2192C3.55667 29.5185 3.26535 29.9642 3.15915 30.4681C3.05316 30.972 3.14006 31.4973 3.40274 31.9401C3.58592 32.2509 3.84762 32.5079 4.16137 32.6854C4.47534 32.863 4.83035 32.9549 5.19089 32.9517L6.74764 32.947C9.9802 31.1314 11.471 29.9022 12.2368 29.1941C13.0027 28.4861 13.8499 27.2174 13.7002 25.7648C13.5505 24.3123 13.1314 23.0059 11.5547 23.3013Z" fill="white"/>
<path d="M12.6845 12.5672C12.1838 11.7385 11.5163 10.6404 11.2656 10.1222C11.015 9.60407 10.4134 9.73043 11.2715 12.0526C9.19344 11.2701 8.75843 11.5621 8.65553 11.853C8.55262 12.1439 9.00971 12.2878 9.883 12.7833C10.7563 13.2788 11.6922 13.8779 11.6922 13.8779L12.6845 12.5672Z" fill="#66BCFF"/>
<path d="M14.8433 12.6228C15.1948 12.1858 15.3181 11.7081 15.1101 11.5426C14.902 11.3772 14.6737 11.4609 14.3636 11.877C14.2299 12.0462 14.0848 12.2062 13.9292 12.3557C13.5773 12.6889 13.6611 12.9377 13.8276 13.0825C13.9941 13.2273 14.4918 13.0598 14.8433 12.6228Z" fill="black"/>
<path d="M18.3682 11.3245C18.3682 11.3245 15.8947 10.2112 14.8341 9.5294C13.7734 8.84764 13.2306 7.8322 13.7072 7.56091C14.1838 7.28963 15.0993 7.93032 15.7452 8.75863C15.72 7.28497 15.9682 6.97289 16.3625 6.95094C16.7568 6.92898 16.7999 7.51002 16.8231 8.34023C16.8464 9.17043 16.9929 9.5021 17.6173 10.0606C17.9911 10.3951 18.2532 10.8363 18.3682 11.3245Z" fill="#3442D9"/>
<path d="M9.31866 18.244C8.73747 18.2458 8.2378 17.7492 8.6918 16.876C9.14581 16.0028 10.6374 15.1265 11.3629 14.7922C12.0884 14.4579 12.4217 14.789 12.4432 15.038C12.4647 15.287 12.3619 15.661 11.845 16.3268C11.3281 16.9925 10.3772 18.2408 9.31866 18.244Z" fill="white"/>
<path d="M9.77494 18.18L9.42248 18.2433L8.91916 16.5428L9.2088 16.2306L9.77494 18.18Z" fill="#8CD9FF"/>
<path d="M11.059 17.2627L10.7695 17.5542L10.1818 15.4595L10.4925 15.251L11.059 17.2627Z" fill="#8CD9FF"/>
<path d="M12.2172 15.8065L11.9483 16.181L11.5288 14.7293L11.8814 14.6659L12.2172 15.8065Z" fill="#8CD9FF"/>
<path d="M11.7563 14.4795C12.1411 14.6618 12.5368 14.8202 12.9411 14.9533" stroke="black" stroke-linecap="round" stroke-linejoin="round"/>
<path d="M21.0382 22.4837C20.6399 22.1698 20.1526 21.9897 19.6461 21.969C18.5668 21.9723 17.968 23.0327 17.7635 24.0504C17.7306 24.2137 17.6429 24.3605 17.5147 24.4667C17.3865 24.573 17.2258 24.6318 17.0596 24.6337L16.9143 24.6342C16.8206 24.6172 16.7313 24.5816 16.6518 24.5291C16.5721 24.4768 16.5041 24.409 16.4515 24.3296C16.399 24.2503 16.3628 24.1611 16.3457 24.0676C16.3284 23.9738 16.3304 23.8777 16.3513 23.7849C16.7397 21.8118 18.0227 20.5417 19.6418 20.5368C19.9095 20.5393 20.1687 20.6328 20.3767 20.8019C20.5846 20.9709 20.729 21.2056 20.7862 21.4674L21.0382 22.4837Z" fill="white"/>
<path d="M22.8046 30.0139C22.8511 30.1994 22.8591 30.3924 22.8286 30.5809C22.798 30.7697 22.7296 30.9503 22.6272 31.1117C22.5247 31.2731 22.3906 31.4119 22.233 31.5199C22.0753 31.6281 21.8973 31.703 21.7099 31.7401L21.1912 31.7832C20.008 31.7868 18.781 31.0847 17.8225 29.863C17.7652 29.7868 17.7232 29.7001 17.6993 29.6078C17.6753 29.5153 17.6699 29.4193 17.6831 29.3248C17.6963 29.2303 17.728 29.1393 17.7763 29.0571C17.8246 28.9748 17.8887 28.903 17.9649 28.8455C18.0399 28.7853 18.1265 28.741 18.2192 28.7154C18.3119 28.69 18.4091 28.6837 18.5044 28.6969C18.5997 28.7103 18.6911 28.7428 18.7735 28.793C18.8556 28.843 18.9268 28.9092 18.9823 28.9877C19.649 29.8367 20.4603 30.3532 21.1868 30.351C21.9133 30.3488 22.3479 29.9323 22.6576 29.3917C22.6999 29.6199 22.7625 29.8273 22.8046 30.0139Z" fill="#2331B5"/>
<path d="M21.3959 24.0811C21.2493 24.0824 21.1069 24.1291 20.988 24.215C20.8693 24.3009 20.7802 24.4217 20.7331 24.5605L19.8685 26.9087C19.7929 27.1291 19.7953 27.3689 19.8753 27.5878C19.9554 27.8068 20.1082 27.9915 20.308 28.1112C20.3985 28.1664 20.5003 28.2007 20.6055 28.2112C20.711 28.2219 20.8175 28.2085 20.9172 28.1723C21.0167 28.1361 21.1068 28.0779 21.1809 28.0021C21.255 27.9263 21.311 27.8348 21.3447 27.7345L21.9007 26.2175C21.7534 25.533 21.585 24.8278 21.3959 24.0811Z" fill="#5865F2"/>
<path d="M20.3079 28.1116C20.1081 27.9918 19.9554 27.8072 19.8752 27.5882C19.7952 27.3693 19.7929 27.1295 19.8684 26.9091L20.1155 26.2648C20.1569 26.1524 20.2222 26.0503 20.3066 25.9654C20.3912 25.8806 20.4931 25.8152 20.6053 25.7733C20.7177 25.7316 20.8376 25.7147 20.9572 25.7237C21.0766 25.7326 21.1927 25.7674 21.2973 25.8254C21.4684 25.9247 21.5997 26.0802 21.6683 26.2657C21.737 26.4511 21.739 26.6545 21.674 26.8413L21.3446 27.7349C21.3109 27.8352 21.2549 27.9267 21.1808 28.0025C21.1067 28.0783 21.0166 28.1365 20.9171 28.1727C20.8174 28.2089 20.7109 28.2223 20.6055 28.2116C20.5002 28.2011 20.3984 28.167 20.3079 28.1116Z" fill="#FFE75C"/>
</g>
<defs>
<clipPath id="clip0_1311_22344">
<rect x="0.310303" y="0.40918" width="29.1892" height="29.1892" rx="14.5946" transform="rotate(-0.173721 0.310303 0.40918)" fill="white"/>
</clipPath>
</defs>
</svg>
