<svg
  width="355"
  height="835"
  viewBox="0 0 355 835"
  fill="none"
  xmlns="http://www.w3.org/2000/svg"
>
  <path
    fillRule="evenodd"
    clipRule="evenodd"
    d="M1001.28 234.483C1119.84 270.082 1250.4 301.224 1317.34 353.214C1396.18 414.45 1439.22 483.499 1383.99 531.737C1326.98 581.534 1181.13 595.598 1035.41 599.467C886.588 603.418 726.581 592.472 573.877 553.244C402.246 509.154 213.29 449.371 161.725 375.026C111.488 302.598 240.11 256.511 337.138 211.928C414.217 176.512 511.72 147.376 647.166 151.976C770.258 156.156 884.903 199.536 1001.28 234.483Z"
    stroke="white"
  />
  <path
    fillRule="evenodd"
    clipRule="evenodd"
    d="M1097.69 231.372C1250.83 278.409 1312.19 356.925 1353.56 426.119C1389.59 486.376 1372.18 541.34 1308.97 584.762C1247.67 626.875 1153.09 662.594 1015.6 658.283C887.188 654.258 779.422 595.378 652.283 564.175C483.924 522.856 257.529 519.364 163.166 449.078C66.5774 377.134 152.119 307.818 242.19 258.718C323.209 214.551 469.935 205.297 619.11 200.528C774.45 195.563 944.325 184.266 1097.69 231.372Z"
    stroke="white"
  />
  <path
    fillRule="evenodd"
    clipRule="evenodd"
    d="M1115.98 249.7C1270.35 282.118 1414.24 350.494 1446.67 415.153C1477.29 476.207 1334.22 501.338 1263.22 543.291C1201.89 579.535 1176.96 629.941 1065.46 640.404C938.661 652.304 773.958 645.439 645.676 601.246C521.571 558.492 524.926 492.251 466.734 434.141C401.495 368.994 215.117 290.796 289.616 245.691C365.003 200.05 589.678 266.515 742.381 267.256C877.716 267.912 976.672 220.446 1115.98 249.7Z"
    stroke="white"
  />
  <path
    fillRule="evenodd"
    clipRule="evenodd"
    d="M1049.9 227.23C1192.61 266.934 1281.13 336.337 1317.54 399.158C1350.18 455.467 1272.19 493.054 1230.38 538.62C1179.26 594.323 1201.49 682.412 1050.22 690.476C898.059 698.587 741.517 619.487 587.642 572.881C432.137 525.78 220.745 491.805 162.611 421.628C104.648 351.656 237.138 306.643 331.68 263.892C406.364 230.121 511.912 214.982 633.301 208.786C767.428 201.939 911.558 188.739 1049.9 227.23Z"
    stroke="white"
  />
  <path
    fillRule="evenodd"
    clipRule="evenodd"
    d="M1008.25 242.88C1112.53 280.882 1244.51 306.433 1302.67 355.803C1367.29 410.663 1355.13 463.565 1324.03 510.953C1283.43 572.841 1256.38 647.983 1102.23 661.28C937.944 675.452 729.452 631.594 561.495 576.733C400.447 524.129 277.003 450.767 230.408 376.514C187.717 308.484 257.882 255.862 329.458 206.967C398.161 160.034 467.9 99.9641 623.212 108.181C773.152 116.114 876.963 195.033 1008.25 242.88Z"
    stroke="white"
  />
  <path
    fillRule="evenodd"
    clipRule="evenodd"
    d="M969.811 265.009C1118.68 307.931 1346.6 329.031 1391.3 395.237C1436.49 462.162 1219.93 472.22 1140 517.047C1074.72 553.659 1095.72 626.468 972.923 629.875C849.867 633.288 735.732 567.309 612.72 531.674C481.294 493.601 295.744 475.649 239.154 417.311C182.308 358.709 315.503 326.18 370.396 281.865C427.815 235.511 424.399 160.165 562.494 156.282C700.962 152.388 831.175 225.039 969.811 265.009Z"
    stroke="white"
  />
  <path
    fillRule="evenodd"
    clipRule="evenodd"
    d="M1000.78 249.548C1107.61 284.801 1177.08 331.113 1235.22 379.722C1307.16 439.869 1400.5 503.99 1367.61 556.244C1329.76 616.375 1220.66 668.699 1055.92 664.579C896.837 660.601 759.959 586.835 614.608 537.413C486.274 493.777 337.91 457.157 271.398 397.828C198.692 332.974 178.502 260.903 254.513 216.209C327.21 173.463 489.037 175.865 637.599 182.502C761.646 188.043 887.573 212.187 1000.78 249.548Z"
    stroke="white"
  />
  <path
    fillRule="evenodd"
    clipRule="evenodd"
    d="M996.747 240.668C1121.82 279.892 1183.16 340.121 1233.61 397.008C1284.65 454.56 1322.87 513.397 1279.7 559.724C1231.9 611.025 1142.57 660.88 992.48 655.804C848.21 650.925 724.449 584.81 599.949 536.735C503.22 499.383 417.147 460.639 364.96 413.489C305.352 359.634 246.065 300.308 291.073 257.672C338.11 213.113 465.909 199.529 594.083 196.44C724.001 193.31 870.135 200.961 996.747 240.668Z"
    stroke="white"
  />
</svg>
