<svg width="14" height="14" viewBox="0 0 14 14" fill="none" xmlns="http://www.w3.org/2000/svg">
<path d="M6.33203 3.66683H7.66536V5.00016H6.33203V3.66683ZM6.33203 6.3335H7.66536V10.3335H6.33203V6.3335ZM6.9987 0.333496C3.3187 0.333496 0.332031 3.32016 0.332031 7.00016C0.332031 10.6802 3.3187 13.6668 6.9987 13.6668C10.6787 13.6668 13.6654 10.6802 13.6654 7.00016C13.6654 3.32016 10.6787 0.333496 6.9987 0.333496ZM6.9987 12.3335C4.0587 12.3335 1.66536 9.94016 1.66536 7.00016C1.66536 4.06016 4.0587 1.66683 6.9987 1.66683C9.9387 1.66683 12.332 4.06016 12.332 7.00016C12.332 9.94016 9.9387 12.3335 6.9987 12.3335Z" fill="#5AC8FA"/>
</svg>
