<svg style="position: absolute; top: 3px;" width="17" height="16" viewBox="0 0 17 16" fill="none" xmlns="http://www.w3.org/2000/svg">
<path d="M14.2436 4.97879L7.30967 11.9127C7.24826 11.9746 7.16466 12.0094 7.07745 12.0094C6.99024 12.0094 6.90664 11.9746 6.84523 11.9127L3.3194 8.38684C3.25748 8.32549 3.22266 8.24189 3.22266 8.15462C3.22266 8.06743 3.25748 7.98383 3.3194 7.9224L3.7773 7.4645C3.83871 7.40262 3.92231 7.36776 4.00952 7.36776C4.09673 7.36776 4.18033 7.40262 4.24174 7.4645L7.07418 10.2969L13.3212 4.0499C13.4506 3.92445 13.6563 3.92445 13.7857 4.0499L14.2436 4.51435C14.3055 4.57576 14.3403 4.65936 14.3403 4.74657C14.3403 4.83378 14.3055 4.91737 14.2436 4.97879Z" fill="white"/>
</svg>
